<?xml version="1.0" encoding="UTF-8"?>
<svg width="96px" height="64px" viewBox="0 0 96 64" version="1.1" xmlns="http://www.w3.org/2000/svg" xmlns:xlink="http://www.w3.org/1999/xlink">
    <!-- Generator: Sketch 45.2 (43514) - http://www.bohemiancoding.com/sketch -->
    <title>[autoentry]ico_verified-data_gradient</title>
    <desc>Created with Sketch.</desc>
    <defs>
        <linearGradient x1="19.0350244%" y1="76.2152778%" x2="77.5149571%" y2="17.1937004%" id="linearGradient-1">
            <stop stop-color="#1A66FF" offset="0%"></stop>
            <stop stop-color="#EB2150" offset="100%"></stop>
        </linearGradient>
    </defs>
    <g id="assets" stroke="none" stroke-width="1" fill="none" fill-rule="evenodd">
        <g id="Assets" transform="translate(-1597.000000, -2630.000000)" fill="url(#linearGradient-1)">
            <path d="M1600.00435,2657.5 C1598.34835,2657.5 1596.99985,2656.1215 1596.99985,2654.4265 L1596.99985,2633.5735 C1596.99985,2631.8785 1598.34835,2630.5 1600.00435,2630.5 L1685.49535,2630.5 C1687.03885,2630.5 1688.49985,2631.7795 1688.49985,2633.1325 L1688.49985,2639.488 C1688.49985,2640.316 1687.82935,2640.988 1686.99985,2640.988 C1686.17035,2640.988 1685.49985,2640.316 1685.49985,2639.488 L1685.49985,2633.5705 L1600.00435,2633.5 L1599.99985,2654.4265 L1671.99985,2654.5 C1672.82935,2654.5 1673.49985,2655.172 1673.49985,2656 C1673.49985,2656.828 1672.82935,2657.5 1671.99985,2657.5 L1600.00435,2657.5 Z M1607.5,2642.5 L1672,2642.5 C1672.8295,2642.5 1673.5,2643.172 1673.5,2644 C1673.5,2644.828 1672.8295,2645.5 1672,2645.5 L1607.5,2645.5 C1606.6705,2645.5 1606,2644.828 1606,2644 C1606,2643.172 1606.6705,2642.5 1607.5,2642.5 Z M1692.4024,2642.77105 C1693.0639,2643.26905 1693.1959,2644.20955 1692.6979,2644.87105 L1683.6979,2656.82305 C1683.4399,2657.16355 1683.0514,2657.37955 1682.6239,2657.41555 C1682.5834,2657.41855 1682.5414,2657.42005 1682.4994,2657.42005 C1682.1184,2657.42005 1681.7464,2657.27305 1681.4674,2657.00905 L1676.9674,2652.74005 C1676.3674,2652.17005 1676.3419,2651.22055 1676.9119,2650.61905 C1677.4819,2650.01755 1678.4314,2649.99205 1679.0329,2650.56355 L1682.3119,2653.67605 L1690.3024,2643.06655 C1690.7989,2642.40505 1691.7379,2642.27155 1692.4024,2642.77105 Z M1654,2690.5 C1654.8295,2690.5 1655.5,2691.172 1655.5,2692 C1655.5,2692.828 1654.8295,2693.5 1654,2693.5 L1600.0045,2693.5 C1598.347,2693.5 1597,2692.1215 1597,2690.4265 L1597,2669.5735 C1597,2667.8785 1598.347,2666.5 1600.0045,2666.5 L1667.4955,2666.5 C1669.039,2666.5 1670.5,2667.7795 1670.5,2669.1325 L1670.5,2675.488 C1670.5,2676.316 1669.8295,2676.988 1669,2676.988 C1668.1705,2676.988 1667.5,2676.316 1667.5,2675.488 L1667.5,2669.5705 L1600.0045,2669.5 L1600,2690.4265 L1654,2690.5 Z M1654,2678.5 C1654.8295,2678.5 1655.5,2679.172 1655.5,2680 C1655.5,2680.828 1654.8295,2681.5 1654,2681.5 L1607.5,2681.5 C1606.6705,2681.5 1606,2680.828 1606,2680 C1606,2679.172 1606.6705,2678.5 1607.5,2678.5 L1654,2678.5 Z M1672.3018,2679.06685 C1672.7983,2678.40535 1673.7373,2678.27035 1674.4018,2678.77135 C1675.0648,2679.26935 1675.1968,2680.20985 1674.6988,2680.87135 L1665.6988,2692.82185 C1665.4408,2693.16385 1665.0508,2693.37985 1664.6248,2693.41435 C1664.5828,2693.41885 1664.5408,2693.42035 1664.5003,2693.42035 C1664.1178,2693.42035 1663.7473,2693.27335 1663.4668,2693.00785 L1658.9668,2688.74035 C1658.3668,2688.16885 1658.3413,2687.22085 1658.9113,2686.61935 C1659.4813,2686.01635 1660.4323,2685.99235 1661.0323,2686.56385 L1664.3128,2689.67485 L1672.3018,2679.06685 Z" id="[autoentry]ico_verified-data_gradient"></path>
        </g>
    </g>
</svg>