<?xml version="1.0" encoding="UTF-8"?>
<svg width="96px" height="96px" viewBox="0 0 96 96" version="1.1" xmlns="http://www.w3.org/2000/svg" xmlns:xlink="http://www.w3.org/1999/xlink">
    <!-- Generator: Sketch 45.2 (43514) - http://www.bohemiancoding.com/sketch -->
    <title>[autoentry]ico_integrations_gradient</title>
    <desc>Created with Sketch.</desc>
    <defs>
        <linearGradient x1="29.5427469%" y1="68.7563469%" x2="72.7497852%" y2="29.7153897%" id="linearGradient-1">
            <stop stop-color="#1A66FF" offset="0%"></stop>
            <stop stop-color="#EB2150" offset="100%"></stop>
        </linearGradient>
    </defs>
    <g id="assets" stroke="none" stroke-width="1" fill="none" fill-rule="evenodd">
        <g id="Assets" transform="translate(-1128.000000, -2465.000000)" fill="url(#linearGradient-1)">
            <path d="M1173.47025,2513 C1173.47025,2511.3455 1174.81575,2510 1176.47025,2510 C1178.12475,2510 1179.47025,2511.3455 1179.47025,2513 C1179.47025,2514.6545 1178.12475,2516 1176.47025,2516 C1174.81575,2516 1173.47025,2514.6545 1173.47025,2513 M1182.47025,2513 C1182.47025,2516.309 1179.77925,2519 1176.47025,2519 C1173.16125,2519 1170.47025,2516.309 1170.47025,2513 C1170.47025,2509.691 1173.16125,2507 1176.47025,2507 C1179.77925,2507 1182.47025,2509.691 1182.47025,2513 Z M1199.2779,2491.78685 C1198.6914,2492.37335 1197.7434,2492.37335 1197.1569,2491.78685 C1191.4914,2486.12135 1183.9569,2482.99985 1175.9439,2482.99985 C1159.4019,2482.99985 1145.9439,2496.45785 1145.9439,2512.99985 C1145.9439,2529.54185 1159.4019,2542.99985 1175.9439,2542.99985 C1192.4874,2542.99985 1205.9439,2529.54185 1205.9439,2512.99985 C1205.9439,2512.17185 1206.6159,2511.49985 1207.4439,2511.49985 C1208.2734,2511.49985 1208.9439,2512.17185 1208.9439,2512.99985 C1208.9439,2531.19635 1194.1404,2545.99985 1175.9439,2545.99985 C1157.7474,2545.99985 1142.9439,2531.19635 1142.9439,2512.99985 C1142.9439,2494.80335 1157.7474,2479.99985 1175.9439,2479.99985 C1184.7594,2479.99985 1193.0469,2483.43335 1199.2779,2489.66585 C1199.8644,2490.25235 1199.8644,2491.20185 1199.2779,2491.78685 Z M1165.3374,2500.2719 C1165.9239,2500.8569 1165.9239,2501.8064 1165.3374,2502.3929 C1162.5039,2505.2264 1160.9439,2508.9929 1160.9439,2512.9994 C1160.9439,2521.2719 1167.6744,2527.9994 1175.9439,2527.9994 C1184.2149,2527.9994 1190.9439,2521.2719 1190.9439,2512.9994 C1190.9439,2504.7284 1184.2149,2497.9994 1175.9439,2497.9994 C1175.1159,2497.9994 1174.4439,2497.3289 1174.4439,2496.4994 C1174.4439,2495.6714 1175.1159,2494.9994 1175.9439,2494.9994 C1185.8694,2494.9994 1193.9439,2503.0754 1193.9439,2512.9994 C1193.9439,2522.9249 1185.8694,2530.9994 1175.9439,2530.9994 C1166.0184,2530.9994 1157.9439,2522.9249 1157.9439,2512.9994 C1157.9439,2508.1919 1159.8159,2503.6724 1163.2164,2500.2719 C1163.8029,2499.6854 1164.7509,2499.6854 1165.3374,2500.2719 Z M1176,2465 C1202.4675,2465 1224,2486.5325 1224,2513 C1224,2539.4675 1202.4675,2561 1176,2561 C1163.169,2561 1151.1075,2555.996 1142.034,2546.9075 C1141.4505,2546.321 1141.4505,2545.3715 1142.037,2544.7865 C1142.6205,2544.2015 1143.573,2544.2 1144.158,2544.788 C1152.663,2553.308 1163.9715,2558 1176,2558 C1200.813,2558 1221,2537.813 1221,2513 C1221,2488.187 1200.813,2468 1176,2468 C1151.187,2468 1131,2488.187 1131,2513 C1131,2513.828 1130.3295,2514.5 1129.5,2514.5 C1128.6705,2514.5 1128,2513.828 1128,2513 C1128,2486.5325 1149.5325,2465 1176,2465 Z" id="[autoentry]ico_integrations_gradient"></path>
        </g>
    </g>
</svg>