<?xml version="1.0" encoding="UTF-8"?>
<svg width="145px" height="101px" viewBox="0 0 145 101" version="1.1" xmlns="http://www.w3.org/2000/svg" xmlns:xlink="http://www.w3.org/1999/xlink">
    <!-- Generator: Sketch 46 (44423) - http://www.bohemiancoding.com/sketch -->
    <title>[autoentry]ico_small-medium-businesses</title>
    <desc>Created with Sketch.</desc>
    <defs>
        <linearGradient x1="19.0350244%" y1="76.2152778%" x2="77.5149571%" y2="17.1937004%" id="linearGradient-1">
            <stop stop-color="#1A66FF" offset="0%"></stop>
            <stop stop-color="#EB2150" offset="100%"></stop>
        </linearGradient>
    </defs>
    <g id="assets" stroke="none" stroke-width="1" fill="none" fill-rule="evenodd">
        <g id="Assets" transform="translate(-1945.000000, -2556.000000)" fill="url(#linearGradient-1)">
            <path d="M1948,2576 C1946.346,2576 1945,2574.654 1945,2573 L1945,2559 C1945,2557.346 1946.346,2556 1948,2556 L1974,2556 C1975.654,2556 1977,2557.346 1977,2559 L1977,2573 C1977,2574.654 1975.654,2576 1974,2576 L1963,2576 L1963,2582 L1979,2582 C1979.184,2582 1979.359,2582.033 1979.528,2582.079 L1983,2577.345 L1983,2569 C1983,2567.896 1983.896,2567 1985,2567 L2060,2567 C2061.104,2567 2062,2567.896 2062,2569 L2062,2577.395 L2071.649,2591.868 C2071.866,2592.185 2071.995,2592.566 2072,2592.978 L2072,2593.004 L2072,2600 C2072,2605.514 2067.514,2610 2062,2610 C2058.732,2610 2055.826,2608.425 2054,2605.994 C2052.174,2608.425 2049.268,2610 2046,2610 C2042.732,2610 2039.826,2608.425 2038,2605.994 C2036.174,2608.425 2033.268,2610 2030,2610 C2026.732,2610 2023.826,2608.425 2022,2605.994 C2020.174,2608.425 2017.268,2610 2014,2610 C2010.732,2610 2007.826,2608.425 2006,2605.994 C2004.174,2608.425 2001.268,2610 1998,2610 C1994.732,2610 1991.826,2608.425 1990,2605.994 C1988.174,2608.425 1985.268,2610 1982,2610 C1981.315,2610 1980.646,2609.93 1980,2609.798 L1980,2647 L2031,2647 L2031,2618 C2031,2616.896 2031.896,2616 2033,2616 L2054,2616 C2055.104,2616 2056,2616.896 2056,2618 L2056,2647 L2064,2647 L2064,2615 C2064,2613.896 2064.896,2613 2066,2613 C2067.104,2613 2068,2613.896 2068,2615 L2068,2647 L2078,2647 C2079.104,2647 2080,2647.896 2080,2649 C2080,2650.104 2079.104,2651 2078,2651 L1958,2651 C1956.896,2651 1956,2650.104 1956,2649 C1956,2647.896 1956.896,2647 1958,2647 L1976,2647 L1976,2607.981 C1973.577,2606.154 1972,2603.261 1972,2600 L1972,2593.021 C1971.997,2592.8 1972.031,2592.576 1972.104,2592.361 C1972.173,2592.157 1972.273,2591.969 1972.399,2591.801 L1976.653,2586 L1961,2586 C1959.896,2586 1959,2585.104 1959,2584 L1959,2576 L1948,2576 Z M2088,2653 C2089.104,2653 2090,2653.896 2090,2655 C2090,2656.104 2089.104,2657 2088,2657 L1947,2657 C1945.896,2657 1945,2656.104 1945,2655 C1945,2653.896 1945.896,2653 1947,2653 L2088,2653 Z M2022,2618 L2022,2631 C2022,2632.105 2021.105,2633 2020,2633 L1991,2633 C1989.895,2633 1989,2632.105 1989,2631 L1989,2618 C1989,2616.895 1989.895,2616 1991,2616 L2020,2616 C2021.105,2616 2022,2616.895 2022,2618 Z M1993,2629 L2018,2629 L2018,2620 L1993,2620 L1993,2629 Z M1949,2572 L1973,2572 L1973,2560 L1949,2560 L1949,2572 Z M1987,2576 L2058,2576 L2058,2571 L1987,2571 L1987,2576 Z M2055.733,2591 L2066.263,2591 L2058.93,2580 L2049.81,2580 L2055.733,2591 Z M2068,2600 L2068,2595 L1976,2595 L1976,2600 C1976,2603.309 1978.691,2606 1982,2606 C1985.309,2606 1988,2603.309 1988,2600 C1988,2598.896 1988.896,2598 1990,2598 C1991.104,2598 1992,2598.896 1992,2600 C1992,2603.309 1994.691,2606 1998,2606 C2001.309,2606 2004,2603.309 2004,2600 C2004,2598.896 2004.896,2598 2006,2598 C2007.104,2598 2008,2598.896 2008,2600 C2008,2603.309 2010.691,2606 2014,2606 C2017.309,2606 2020,2603.309 2020,2600 C2020,2598.896 2020.896,2598 2022,2598 C2023.104,2598 2024,2598.896 2024,2600 C2024,2603.309 2026.691,2606 2030,2606 C2033.309,2606 2036,2603.309 2036,2600 C2036,2598.896 2036.896,2598 2038,2598 C2039.104,2598 2040,2598.896 2040,2600 C2040,2603.309 2042.691,2606 2046,2606 C2049.309,2606 2052,2603.309 2052,2600 C2052,2598.896 2052.896,2598 2054,2598 C2055.104,2598 2056,2598.896 2056,2600 C2056,2603.309 2058.691,2606 2062,2606 C2065.309,2606 2068,2603.309 2068,2600 Z M2020,2591 L2020,2580 L2011.784,2580 L2008.4,2591 L2020,2591 Z M2045.267,2580 L2024,2580 L2024,2591 L2034.688,2591 L2033.06,2584.485 C2032.792,2583.413 2033.443,2582.327 2034.515,2582.06 C2035.586,2581.791 2036.672,2582.443 2036.94,2583.515 L2038.812,2591 L2051.19,2591 L2045.267,2580 Z M1986.014,2580 L1977.947,2591 L2004.216,2591 L2007.6,2580 L1998.236,2580 L1994.789,2586.895 C1994.438,2587.596 1993.732,2588 1992.998,2588 C1992.698,2588 1992.393,2587.933 1992.105,2587.789 C1991.117,2587.295 1990.717,2586.094 1991.211,2585.105 L1993.764,2580 L1986.014,2580 Z M2035,2640 L2035,2647 L2052,2647 L2052,2620 L2035,2620 L2035,2636 L2040,2636 C2041.104,2636 2042,2636.896 2042,2638 C2042,2639.104 2041.104,2640 2040,2640 L2035,2640 Z M1969,2566 C1969,2567.104 1968.104,2568 1967,2568 L1955,2568 C1953.896,2568 1953,2567.104 1953,2566 C1953,2564.896 1953.896,2564 1955,2564 L1967,2564 C1968.104,2564 1969,2564.896 1969,2566 Z" id="[autoentry]ico_small-medium-businesses"></path>
        </g>
    </g>
</svg>