<?xml version="1.0" encoding="UTF-8"?>
<svg width="32px" height="32px" viewBox="0 0 32 32" version="1.1" xmlns="http://www.w3.org/2000/svg" xmlns:xlink="http://www.w3.org/1999/xlink">
    <!-- Generator: Sketch 46.1 (44463) - http://www.bohemiancoding.com/sketch -->
    <title>[autoentry]ico_testimonial_google</title>
    <desc>Created with Sketch.</desc>
    <defs></defs>
    <g id="assets" stroke="none" stroke-width="1" fill="none" fill-rule="evenodd">
        <g id="Assets" transform="translate(-696.000000, -1304.000000)">
            <g id="[autoentry]ico_testimonial_google" transform="translate(696.000000, 1304.000000)">
                <path d="M16.3219622,13.0551216 L16.3219622,19.2272672 L25.1060997,19.2272672 C24.7277845,21.2217546 23.5778017,22.911749 21.8491599,24.0431328 L27.1241169,28.0467182 C30.2104206,25.2688134 31.991051,21.1783709 31.991051,16.3188527 C31.991051,15.1874689 31.8871656,14.0994689 31.6942487,13.0551216 L16.3219622,13.0551216 Z" id="Fill-1" fill="#3E82F1"></path>
                <path d="M16.3219622,25.5662431 C12.0708218,25.5662431 8.47251805,22.759386 7.18903381,18.9878678 L1.73610544,23.1220527 C4.42172149,28.3368874 9.94149226,31.9124616 16.3219622,31.9124616 C20.7288848,31.9124616 24.423647,30.4836661 27.1241169,28.0466465 L21.8491599,24.0431507 C20.3876126,25.0005513 18.5180424,25.5662431 16.3219622,25.5662431" id="Fill-4" fill="#F9BB00"></path>
                <path d="M0,15.9562218 C0,18.5309221 0.630647564,20.9679417 1.73606877,23.1220706 L7.18908883,18.9878857 C6.8625788,18.0305748 6.67708883,17.0079193 6.67708883,15.9562218 C6.67708883,14.904614 6.8625788,13.8819585 7.18908883,12.924558 L1.73606877,8.79046275 C0.630647564,10.9445916 0,13.3814319 0,15.9562218" id="Fill-7" fill="#32A753"></path>
                <path d="M1.73606877,8.79050756 L7.18908883,12.9245132 C8.47248138,9.15308459 12.0707851,6.34622745 16.3219255,6.34622745 C18.7182579,6.34622745 20.8698682,7.15133669 22.5613754,8.73242353 L27.2428195,4.15588571 C24.4160917,1.58118543 20.7214212,8.96358576e-06 16.3219255,8.96358576e-06 C9.94145559,8.96358576e-06 4.4217765,3.57567283 1.73606877,8.79050756" id="Fill-9" fill="#E74133"></path>
            </g>
        </g>
    </g>
</svg>