<?xml version="1.0" encoding="UTF-8"?>
<svg width="81px" height="96px" viewBox="0 0 81 96" version="1.1" xmlns="http://www.w3.org/2000/svg" xmlns:xlink="http://www.w3.org/1999/xlink">
    <!-- Generator: Sketch 46.1 (44463) - http://www.bohemiancoding.com/sketch -->
    <title>Combined Shape</title>
    <desc>Created with Sketch.</desc>
    <defs>
        <linearGradient x1="19.0350244%" y1="76.2152778%" x2="77.5149571%" y2="17.1937004%" id="linearGradient-1">
            <stop stop-color="#1A66FF" offset="0%"></stop>
            <stop stop-color="#EB2150" offset="100%"></stop>
        </linearGradient>
    </defs>
    <g id="assets" stroke="none" stroke-width="1" fill="none" fill-rule="evenodd">
        <g id="Assets" transform="translate(-2017.000000, -2238.000000)" fill="url(#linearGradient-1)">
            <path d="M2030.54545,2331.0369 C2030.52445,2330.1939 2031.20245,2329.4994 2032.04545,2329.4994 L2084.42995,2329.4994 L2084.46745,2256.1899 L2065.52995,2278.7679 L2075.17645,2295.5229 C2075.40145,2295.7854 2075.53645,2296.1259 2075.53645,2296.4994 C2075.53645,2297.3274 2074.86595,2297.9994 2074.03645,2297.9994 C2074.03045,2297.9994 2074.01845,2298.0009 2074.00795,2297.9994 L2049.40045,2297.9994 L2019.65545,2333.4639 C2019.35845,2333.8164 2018.93245,2333.9994 2018.50345,2333.9994 C2018.16295,2333.9994 2017.81945,2333.8839 2017.53895,2333.6484 C2016.90445,2333.1159 2016.81595,2332.1709 2017.34845,2331.5349 L2027.58895,2319.3144 C2027.56645,2319.2094 2027.50795,2319.1104 2027.50795,2318.9994 L2027.50795,2242.4994 C2027.50795,2240.8449 2028.90595,2239.4994 2030.58145,2239.4994 L2083.00795,2239.4994 C2083.83595,2239.4994 2084.50795,2240.1714 2084.50795,2240.9994 C2084.50795,2241.8274 2083.83595,2242.4994 2083.00795,2242.4994 L2030.58145,2242.4994 L2030.54545,2315.8119 L2045.48395,2297.9994 L2041.00795,2297.9994 C2040.47095,2297.9994 2039.97745,2297.7144 2039.70895,2297.2494 C2039.44195,2296.7859 2039.44045,2296.2159 2039.70745,2295.7509 L2056.20745,2267.0874 C2056.74145,2266.1574 2058.27295,2266.1574 2058.80695,2267.0874 L2063.93695,2275.9989 L2095.35745,2238.5349 C2095.88995,2237.9034 2096.83495,2237.8179 2097.47095,2238.3504 C2098.10545,2238.8829 2098.19845,2239.8279 2097.66595,2240.4639 L2087.42545,2252.6859 C2087.44795,2252.7909 2087.50795,2252.8884 2087.50795,2252.9994 L2087.50795,2329.4994 C2087.50795,2331.1539 2086.10545,2332.4994 2084.42995,2332.4994 L2032.04545,2332.4994 C2031.23095,2332.4994 2030.56645,2331.8499 2030.54545,2331.0369 Z M2043.60145,2294.9994 L2071.41295,2294.9994 L2057.50795,2270.8434 L2043.60145,2294.9994 Z M2056.0072,2278.4994 C2056.0072,2277.6714 2056.6777,2276.9994 2057.5072,2276.9994 C2058.3367,2276.9994 2059.0072,2277.6714 2059.0072,2278.4994 L2059.0072,2285.9994 C2059.0072,2286.8274 2058.3367,2287.4994 2057.5072,2287.4994 C2056.6777,2287.4994 2056.0072,2286.8274 2056.0072,2285.9994 L2056.0072,2278.4994 Z M2057.5072,2288.9994 C2058.3352,2288.9994 2059.0072,2289.6714 2059.0072,2290.4994 C2059.0072,2291.3274 2058.3352,2291.9994 2057.5072,2291.9994 C2056.6792,2291.9994 2056.0072,2291.3274 2056.0072,2290.4994 C2056.0072,2289.6714 2056.6792,2288.9994 2057.5072,2288.9994 Z" id="Combined-Shape"></path>
        </g>
    </g>
</svg>