<?xml version="1.0" encoding="UTF-8"?>
<svg width="141px" height="19px" viewBox="0 0 141 19" version="1.1" xmlns="http://www.w3.org/2000/svg" xmlns:xlink="http://www.w3.org/1999/xlink">
    <!-- Generator: Sketch 46.1 (44463) - http://www.bohemiancoding.com/sketch -->
    <title>[autoentry]rating_3</title>
    <desc>Created with Sketch.</desc>
    <defs></defs>
    <g id="assets" stroke="none" stroke-width="1" fill="none" fill-rule="evenodd">
        <g id="Assets" transform="translate(-680.000000, -1152.000000)">
            <g id="[autoentry]rating_3" transform="translate(680.000000, 1152.000000)">
                <path d="M10.5251301,15.7719334 L4.34479017,19.0211303 L5.52513006,12.1392207 L0.525130058,7.26542528 L7.43496011,6.2613682 L10.5251301,0 L13.6153,6.2613682 L20.5251301,7.26542528 L15.5251301,12.1392207 L16.7054699,19.0211303 L10.5251301,15.7719334 Z M40.5251301,15.7719334 L34.3447902,19.0211303 L35.5251301,12.1392207 L30.5251301,7.26542528 L37.4349601,6.2613682 L40.5251301,0 L43.6153,6.2613682 L50.5251301,7.26542528 L45.5251301,12.1392207 L46.7054699,19.0211303 L40.5251301,15.7719334 Z M70.5251301,15.7719334 L64.3447902,19.0211303 L65.5251301,12.1392207 L60.5251301,7.26542528 L67.4349601,6.2613682 L70.5251301,0 L73.6153,6.2613682 L80.5251301,7.26542528 L75.5251301,12.1392207 L76.7054699,19.0211303 L70.5251301,15.7719334 Z" id="Combined-Shape" fill="#1966FF"></path>
                <polygon id="Star" fill="#D3E1FD" points="100.52513 15.7719334 94.3447902 19.0211303 95.5251301 12.1392207 90.5251301 7.26542528 97.4349601 6.2613682 100.52513 0 103.6153 6.2613682 110.52513 7.26542528 105.52513 12.1392207 106.70547 19.0211303"></polygon>
                <polygon id="Star" fill="#D3E1FD" points="130.52513 15.7719334 124.34479 19.0211303 125.52513 12.1392207 120.52513 7.26542528 127.43496 6.2613682 130.52513 0 133.6153 6.2613682 140.52513 7.26542528 135.52513 12.1392207 136.70547 19.0211303"></polygon>
            </g>
        </g>
    </g>
</svg>