<?xml version="1.0" encoding="UTF-8"?>
<svg width="141px" height="19px" viewBox="0 0 141 19" version="1.1" xmlns="http://www.w3.org/2000/svg" xmlns:xlink="http://www.w3.org/1999/xlink">
    <!-- Generator: Sketch 46.1 (44463) - http://www.bohemiancoding.com/sketch -->
    <title>[autoentry]rating_5</title>
    <desc>Created with Sketch.</desc>
    <defs></defs>
    <g id="assets" stroke="none" stroke-width="1" fill="none" fill-rule="evenodd">
        <g id="Assets" transform="translate(-680.000000, -1232.000000)" fill="#1966FF">
            <path d="M690.52513,1247.77193 L684.34479,1251.02113 L685.52513,1244.13922 L680.52513,1239.26543 L687.43496,1238.26137 L690.52513,1232 L693.6153,1238.26137 L700.52513,1239.26543 L695.52513,1244.13922 L696.70547,1251.02113 L690.52513,1247.77193 Z M720.52513,1247.77193 L714.34479,1251.02113 L715.52513,1244.13922 L710.52513,1239.26543 L717.43496,1238.26137 L720.52513,1232 L723.6153,1238.26137 L730.52513,1239.26543 L725.52513,1244.13922 L726.70547,1251.02113 L720.52513,1247.77193 Z M750.52513,1247.77193 L744.34479,1251.02113 L745.52513,1244.13922 L740.52513,1239.26543 L747.43496,1238.26137 L750.52513,1232 L753.6153,1238.26137 L760.52513,1239.26543 L755.52513,1244.13922 L756.70547,1251.02113 L750.52513,1247.77193 Z M780.52513,1247.77193 L774.34479,1251.02113 L775.52513,1244.13922 L770.52513,1239.26543 L777.43496,1238.26137 L780.52513,1232 L783.6153,1238.26137 L790.52513,1239.26543 L785.52513,1244.13922 L786.70547,1251.02113 L780.52513,1247.77193 Z M810.52513,1247.77193 L804.34479,1251.02113 L805.52513,1244.13922 L800.52513,1239.26543 L807.43496,1238.26137 L810.52513,1232 L813.6153,1238.26137 L820.52513,1239.26543 L815.52513,1244.13922 L816.70547,1251.02113 L810.52513,1247.77193 Z" id="[autoentry]rating_5"></path>
        </g>
    </g>
</svg>