<?xml version="1.0" encoding="UTF-8"?>
<svg width="81px" height="96px" viewBox="0 0 81 96" version="1.1" xmlns="http://www.w3.org/2000/svg" xmlns:xlink="http://www.w3.org/1999/xlink">
    <!-- Generator: Sketch 45.2 (43514) - http://www.bohemiancoding.com/sketch -->
    <title>[autoentry]ico_paperless_gradient</title>
    <desc>Created with Sketch.</desc>
    <defs>
        <linearGradient x1="24.2065064%" y1="75.9715346%" x2="75.2265358%" y2="26.2659566%" id="linearGradient-1">
            <stop stop-color="#1A66FF" offset="0%"></stop>
            <stop stop-color="#EB2150" offset="100%"></stop>
        </linearGradient>
    </defs>
    <g id="assets" stroke="none" stroke-width="1" fill="none" fill-rule="evenodd">
        <g id="Assets" transform="translate(-527.000000, -2463.000000)" fill="url(#linearGradient-1)">
            <path d="M594.4994,2476.47285 L584.2004,2488.75185 C584.1329,2488.74135 584.0714,2488.71135 583.9994,2488.71135 L550.9994,2488.71135 C550.1699,2488.71135 549.4994,2489.38335 549.4994,2490.21135 C549.4994,2491.03935 550.1699,2491.71135 550.9994,2491.71135 L581.7194,2491.71135 L576.1754,2498.32035 C575.9009,2497.96035 575.4884,2497.71135 574.9994,2497.71135 L550.9994,2497.71135 C550.1699,2497.71135 549.4994,2498.38335 549.4994,2499.21135 C549.4994,2500.03935 550.1699,2500.71135 550.9994,2500.71135 L574.1714,2500.71135 L568.6544,2507.28885 C568.3784,2506.94535 567.9749,2506.71135 567.4994,2506.71135 L550.9994,2506.71135 C550.1699,2506.71135 549.4994,2507.38335 549.4994,2508.21135 C549.4994,2509.03935 550.1699,2509.71135 550.9994,2509.71135 L566.6219,2509.71135 L561.1319,2516.25735 C560.8574,2515.93035 560.4599,2515.71135 559.9994,2515.71135 L550.9994,2515.71135 C550.1699,2515.71135 549.4994,2516.38335 549.4994,2517.21135 C549.4994,2518.03935 550.1699,2518.71135 550.9994,2518.71135 L559.0739,2518.71135 L541.9994,2539.07235 L541.9994,2467.71135 L594.4994,2467.71135 L594.4994,2476.47285 Z M607.4639,2463.35085 C608.0969,2463.88335 608.1809,2464.82835 607.6499,2465.46435 L529.6499,2558.46435 C529.3514,2558.81835 528.9269,2558.99985 528.4979,2558.99985 C528.1589,2558.99985 527.8169,2558.88435 527.5364,2558.64885 C526.9019,2558.11635 526.8179,2557.17135 527.3504,2556.53685 L539.0219,2542.61985 C539.0189,2542.57785 538.9994,2542.54335 538.9994,2542.49985 L538.9994,2467.49985 C538.9994,2465.84535 540.3434,2464.71135 541.9964,2464.71135 L594.4994,2464.71135 C596.1539,2464.71135 597.4994,2465.84535 597.4994,2467.49985 L597.4994,2472.89535 L605.3489,2463.53685 C605.8829,2462.90235 606.8279,2462.81835 607.4639,2463.35085 Z M595.9994,2485.53435 C596.8289,2485.53435 597.4994,2486.20635 597.4994,2487.03435 L597.4994,2488.53435 C597.4994,2489.36235 596.8289,2490.03435 595.9994,2490.03435 C595.1699,2490.03435 594.4994,2489.36235 594.4994,2488.53435 L594.4994,2487.03435 C594.4994,2486.20635 595.1699,2485.53435 595.9994,2485.53435 Z M592.71815,2553.2109 C593.54615,2553.2109 594.21815,2553.8814 594.21815,2554.7109 C594.21815,2555.5389 593.54765,2556.2109 592.71815,2556.2109 L589.73765,2556.2109 C588.90965,2556.2109 588.23765,2555.5404 588.23765,2554.7109 C588.23765,2553.8829 588.90815,2553.2109 589.73765,2553.2109 L592.71815,2553.2109 Z M568.8632,2553.2109 C569.6927,2553.2109 570.3632,2553.8829 570.3632,2554.7109 C570.3632,2555.5389 569.6927,2556.2109 568.8632,2556.2109 L565.8827,2556.2109 C565.0532,2556.2109 564.3827,2555.5389 564.3827,2554.7109 C564.3827,2553.8829 565.0532,2553.2109 565.8827,2553.2109 L568.8632,2553.2109 Z M595.9994,2531.7627 C596.8289,2531.7627 597.4994,2532.4347 597.4994,2533.2627 L597.4994,2536.2447 C597.4994,2537.0742 596.8289,2537.7447 595.9994,2537.7447 C595.1699,2537.7447 594.4994,2537.0742 594.4994,2536.2447 L594.4994,2533.2627 C594.4994,2532.4347 595.1699,2531.7627 595.9994,2531.7627 Z M580.79135,2553.2109 C581.62085,2553.2109 582.29135,2553.8829 582.29135,2554.7109 C582.29135,2555.5389 581.62085,2556.2109 580.79135,2556.2109 L577.80935,2556.2109 C576.97985,2556.2109 576.30935,2555.5389 576.30935,2554.7109 C576.30935,2553.8829 576.97985,2553.2109 577.80935,2553.2109 L580.79135,2553.2109 Z M556.9364,2553.2109 C557.7644,2553.2109 558.4364,2553.8814 558.4364,2554.7109 C558.4364,2555.5389 557.7659,2556.2109 556.9364,2556.2109 L553.9544,2556.2109 C553.1264,2556.2109 552.4544,2555.5404 552.4544,2554.7109 C552.4544,2553.8829 553.1249,2553.2109 553.9544,2553.2109 L556.9364,2553.2109 Z M595.9994,2543.69085 C596.8289,2543.69085 597.4994,2544.36285 597.4994,2545.19085 L597.4994,2548.17285 C597.4994,2549.00085 596.8289,2549.67285 595.9994,2549.67285 C595.1699,2549.67285 594.4994,2549.00085 594.4994,2548.17285 L594.4994,2545.19085 C594.4994,2544.36285 595.1699,2543.69085 595.9994,2543.69085 Z M595.9994,2495.9802 C596.8289,2495.9802 597.4994,2496.6522 597.4994,2497.4802 L597.4994,2500.4622 C597.4994,2501.2902 596.8289,2501.9622 595.9994,2501.9622 C595.1699,2501.9622 594.4994,2501.2902 594.4994,2500.4622 L594.4994,2497.4802 C594.4994,2496.6522 595.1699,2495.9802 595.9994,2495.9802 Z M595.9994,2519.83515 C596.8289,2519.83515 597.4994,2520.50715 597.4994,2521.33515 L597.4994,2524.31715 C597.4994,2525.14665 596.8289,2525.81715 595.9994,2525.81715 C595.1699,2525.81715 594.4994,2525.14665 594.4994,2524.31715 L594.4994,2521.33515 C594.4994,2520.50715 595.1699,2519.83515 595.9994,2519.83515 Z M595.9994,2507.90775 C596.8289,2507.90775 597.4994,2508.57975 597.4994,2509.40775 L597.4994,2512.38975 C597.4994,2513.21775 596.8289,2513.88975 595.9994,2513.88975 C595.1699,2513.88975 594.4994,2513.21775 594.4994,2512.38975 L594.4994,2509.40775 C594.4994,2508.57975 595.1699,2507.90775 595.9994,2507.90775 Z M544.9994,2553.2109 C545.8289,2553.2109 546.4994,2553.8829 546.4994,2554.7109 C546.4994,2555.5389 545.8289,2556.2109 544.9994,2556.2109 L543.4994,2556.2109 C542.6699,2556.2109 541.9994,2555.5389 541.9994,2554.7109 C541.9994,2553.8829 542.6699,2553.2109 543.4994,2553.2109 L544.9994,2553.2109 Z" id="[autoentry]ico_paperless_gradient"></path>
        </g>
    </g>
</svg>