<?xml version="1.0" encoding="UTF-8"?>
<svg width="70px" height="93px" viewBox="0 0 70 93" version="1.1" xmlns="http://www.w3.org/2000/svg" xmlns:xlink="http://www.w3.org/1999/xlink">
    <!-- Generator: Sketch 45.2 (43514) - http://www.bohemiancoding.com/sketch -->
    <title>[autoentry]ico_smart-analysis_gradient</title>
    <desc>Created with Sketch.</desc>
    <defs>
        <linearGradient x1="19.0350244%" y1="76.2152778%" x2="77.5149571%" y2="17.1937004%" id="linearGradient-1">
            <stop stop-color="#1A66FF" offset="0%"></stop>
            <stop stop-color="#EB2150" offset="100%"></stop>
        </linearGradient>
    </defs>
    <g id="assets" stroke="none" stroke-width="1" fill="none" fill-rule="evenodd">
        <g id="Assets" transform="translate(-1334.000000, -2617.000000)" fill="url(#linearGradient-1)">
            <path d="M1343.5,2617 C1344.3295,2617 1345,2617.672 1345,2618.5 C1345,2619.328 1344.3295,2620 1343.5,2620 L1339,2620 L1339,2624.3995 C1339,2625.2275 1338.3295,2625.8995 1337.5,2625.8995 C1336.6705,2625.8995 1336,2625.2275 1336,2624.3995 L1336,2618.3995 C1336,2617.57 1336.6705,2617 1337.5,2617 L1343.5,2617 Z M1342,2707 C1342.8295,2707 1343.5,2707.672 1343.5,2708.5 C1343.5,2709.328 1342.8295,2710 1342,2710 L1336,2710 C1335.1705,2710 1334.5,2709.3715 1334.5,2708.542 L1334.5,2702.5 C1334.5,2701.672 1335.1705,2701 1336,2701 C1336.8295,2701 1337.5,2701.672 1337.5,2702.5 L1337.5,2707 L1342,2707 Z M1402,2701 C1402.8295,2701 1403.5,2701.672 1403.5,2702.5 L1403.5,2708.5 C1403.5,2709.328 1402.8295,2710 1402,2710 L1396,2710 C1395.1705,2710 1394.5,2709.328 1394.5,2708.5 C1394.5,2707.672 1395.1705,2707 1396,2707 L1400.5,2707 L1400.5,2702.5 C1400.5,2701.672 1401.1705,2701 1402,2701 Z M1402,2617 C1402.8295,2617 1403.5,2617.672 1403.5,2618.5 L1403.5,2624.5 C1403.5,2625.328 1402.8295,2626 1402,2626 C1401.1705,2626 1400.5,2625.328 1400.5,2624.5 L1400.5,2620 L1396,2620 C1395.1705,2620 1394.5,2619.328 1394.5,2618.5 C1394.5,2617.672 1395.1705,2617 1396,2617 L1402,2617 Z M1392.2395,2627.6941 C1392.7105,2627.9611 1393,2628.4591 1393,2629.0006 L1393,2698.0006 C1393,2698.5406 1392.7105,2699.0386 1392.238,2699.3056 C1391.77,2699.5726 1391.1925,2699.5651 1390.7275,2699.2861 L1384.0045,2695.2496 L1377.2785,2699.2861 C1376.803,2699.5711 1376.209,2699.5711 1375.7335,2699.2861 L1369.012,2695.2496 L1362.283,2699.2861 C1362.046,2699.4286 1361.779,2699.5006 1361.512,2699.5006 C1361.245,2699.5006 1360.978,2699.4286 1360.7395,2699.2876 L1354.006,2695.2496 L1347.2725,2699.2876 C1346.8075,2699.5651 1346.23,2699.5696 1345.7605,2699.3056 C1345.2895,2699.0386 1345,2698.5406 1345,2698.0006 L1345,2629.0006 C1345,2628.4591 1345.2895,2627.9611 1345.762,2627.6941 C1346.2315,2627.4286 1346.8105,2627.4376 1347.2725,2627.7136 L1353.9955,2631.7501 L1360.7215,2627.7136 C1361.197,2627.4286 1361.791,2627.4286 1362.2665,2627.7136 L1368.988,2631.7501 L1375.717,2627.7136 C1376.191,2627.4286 1376.782,2627.4286 1377.2605,2627.7136 L1383.994,2631.7516 L1390.7275,2627.7136 C1391.1925,2627.4361 1391.77,2627.4286 1392.2395,2627.6941 Z M1390,2695.3501 L1390,2631.6481 L1384.7665,2634.7876 C1384.288,2635.0711 1383.7,2635.0711 1383.2215,2634.7876 L1376.488,2630.7496 L1369.7605,2634.7861 C1369.285,2635.0711 1368.691,2635.0711 1368.217,2634.7861 L1361.494,2630.7496 L1354.768,2634.7861 C1354.2925,2635.0711 1353.6985,2635.0711 1353.223,2634.7861 L1348,2631.6496 L1348,2695.3516 L1353.2335,2692.2136 C1353.472,2692.0711 1353.739,2692.0006 1354.006,2692.0006 C1354.273,2692.0006 1354.5385,2692.0711 1354.7785,2692.2136 L1361.512,2696.2516 L1368.2395,2692.2136 C1368.715,2691.9286 1369.309,2691.9286 1369.783,2692.2136 L1376.506,2696.2501 L1383.232,2692.2136 C1383.7075,2691.9286 1384.3015,2691.9286 1384.777,2692.2136 L1390,2695.3501 Z M1366,2665 C1366.8295,2665 1367.5,2665.672 1367.5,2666.5 C1367.5,2667.328 1366.8295,2668 1366,2668 L1355.5,2668 C1354.6705,2668 1354,2667.328 1354,2666.5 C1354,2665.672 1354.6705,2665 1355.5,2665 L1366,2665 Z M1375,2656 C1375.8295,2656 1376.5,2656.672 1376.5,2657.5 C1376.5,2658.328 1375.8295,2659 1375,2659 L1355.5,2659 C1354.6705,2659 1354,2658.328 1354,2657.5 C1354,2656.672 1354.6705,2656 1355.5,2656 L1375,2656 Z M1379.5,2647 C1380.3295,2647 1381,2647.672 1381,2648.5 C1381,2649.328 1380.3295,2650 1379.5,2650 L1355.5,2650 C1354.6705,2650 1354,2649.328 1354,2648.5 C1354,2647.672 1354.6705,2647 1355.5,2647 L1379.5,2647 Z" id="[autoentry]ico_smart-analysis_gradient"></path>
        </g>
    </g>
</svg>