<?xml version="1.0" encoding="UTF-8"?>
<svg width="64px" height="44px" viewBox="0 0 64 44" version="1.1" xmlns="http://www.w3.org/2000/svg" xmlns:xlink="http://www.w3.org/1999/xlink">
    <!-- Generator: Sketch 45.2 (43514) - http://www.bohemiancoding.com/sketch -->
    <title>Fill 4</title>
    <desc>Created with Sketch.</desc>
    <defs>
        <linearGradient x1="36.3072316%" y1="56.5736943%" x2="63.2509595%" y2="36.2830681%" id="linearGradient-1">
            <stop stop-color="#1A66FF" offset="0%"></stop>
            <stop stop-color="#EB2150" offset="100%"></stop>
        </linearGradient>
    </defs>
    <g id="Web-iteration-03" stroke="none" stroke-width="1" fill="none" fill-rule="evenodd">
        <g id="[autoentry]hp_iteration01" transform="translate(-294.000000, -2957.000000)" fill="url(#linearGradient-1)">
            <g id="Group-3" transform="translate(285.000000, 2957.000000)">
                <path d="M60.8257,2 C60.5327,2 60.2377,2.101 59.9497,2.3 C51.2567,8.301 45.2987,17.138 44.3987,25.362 C43.8637,30.258 45.1337,34.517 48.0717,37.678 C50.5907,40.389 54.1817,41.943 57.9257,41.943 C61.4157,41.943 64.6647,40.617 67.0737,38.21 C69.7877,35.499 71.1777,31.908 70.9847,28.1 C70.7967,24.346 69.0247,20.837 66.1267,18.472 C64.4317,17.09 62.2937,16.114 60.1027,15.722 C58.3277,15.404 56.6137,15.499 55.1917,15.995 C54.8077,16.128 54.3777,16.016 54.1097,15.709 C53.8417,15.401 53.7867,14.961 53.9717,14.598 C55.2577,12.068 57.6637,8.282 61.8247,4.613 C62.4567,4.057 62.4087,3.463 62.2577,3.062 C62.0247,2.447 61.4227,2 60.8257,2 M57.9257,43.943 C53.6287,43.943 49.5027,42.156 46.6067,39.04 C43.2617,35.44 41.8097,30.636 42.4107,25.145 C43.3857,16.227 49.5167,7.071 58.8127,0.654 C59.4327,0.226 60.1287,0 60.8257,0 C62.2687,0 63.5967,0.947 64.1287,2.356 C64.6417,3.715 64.2747,5.12 63.1467,6.114 C60.1677,8.741 58.1457,11.423 56.8167,13.603 C57.9687,13.478 59.2077,13.53 60.4547,13.753 C62.9737,14.204 65.4377,15.329 67.3897,16.922 C70.7267,19.644 72.7647,23.682 72.9827,27.999 C73.2037,32.38 71.6067,36.508 68.4877,39.625 C65.7007,42.41 61.9487,43.943 57.9257,43.943 M27.5474,2 C27.2544,2 26.9594,2.101 26.6714,2.3 C17.9784,8.301 12.0204,17.138 11.1204,25.362 C10.5854,30.258 11.8554,34.517 14.7934,37.678 C17.3124,40.389 20.9034,41.943 24.6474,41.943 C28.1374,41.943 31.3864,40.617 33.7954,38.21 C36.5104,35.498 37.8994,31.907 37.7074,28.099 C37.5184,24.346 35.7464,20.837 32.8484,18.472 C31.1534,17.09 29.0154,16.114 26.8244,15.722 C25.0484,15.404 23.3354,15.499 21.9154,15.995 C21.5274,16.13 21.1014,16.016 20.8324,15.709 C20.5644,15.402 20.5094,14.962 20.6934,14.598 C21.9784,12.069 24.3824,8.284 28.5464,4.613 C29.1784,4.057 29.1304,3.463 28.9794,3.062 C28.7464,2.447 28.1444,2 27.5474,2 M24.6474,43.943 C20.3504,43.943 16.2244,42.156 13.3284,39.04 C9.9834,35.44 8.5314,30.636 9.1324,25.145 C10.1074,16.227 16.2384,7.071 25.5344,0.654 C26.1544,0.226 26.8504,0 27.5474,0 C28.9904,0 30.3184,0.947 30.8504,2.356 C31.3634,3.715 30.9964,5.12 29.8684,6.114 C26.8874,8.742 24.8664,11.424 23.5394,13.603 C24.6884,13.478 25.9294,13.53 27.1764,13.753 C29.6954,14.204 32.1594,15.329 34.1114,16.922 C37.4484,19.644 39.4864,23.681 39.7044,27.998 C39.9254,32.379 38.3284,36.508 35.2094,39.625 C32.4224,42.41 28.6704,43.943 24.6474,43.943" id="Fill-4"></path>
            </g>
        </g>
    </g>
</svg>