<?xml version="1.0" encoding="UTF-8"?>
<svg width="53px" height="96px" viewBox="0 0 53 96" version="1.1" xmlns="http://www.w3.org/2000/svg" xmlns:xlink="http://www.w3.org/1999/xlink">
    <!-- Generator: Sketch 45.2 (43514) - http://www.bohemiancoding.com/sketch -->
    <title>[autoentry]ico_mobile_gradient</title>
    <desc>Created with Sketch.</desc>
    <defs>
        <linearGradient x1="0%" y1="75.648468%" x2="85.7211808%" y2="30.1914377%" id="linearGradient-1">
            <stop stop-color="#1A66FF" offset="0%"></stop>
            <stop stop-color="#EB2150" offset="100%"></stop>
        </linearGradient>
    </defs>
    <g id="assets" stroke="none" stroke-width="1" fill="none" fill-rule="evenodd">
        <g id="Assets" transform="translate(-847.000000, -2459.000000)" fill="url(#linearGradient-1)">
            <path d="M851.5,2459 C849.8425,2459 848.5,2460.344 848.5,2462 L848.5,2477.2115 C847.672,2477.2115 847,2477.8835 847,2478.7115 L847,2483.2115 C847,2484.0395 847.672,2484.7115 848.5,2484.7115 L848.5,2487.7115 C847.672,2487.7115 847,2488.3835 847,2489.2115 L847,2493.7115 C847,2494.5395 847.672,2495.2115 848.5,2495.2115 L848.5,2552 C848.5,2553.6575 849.8425,2555 851.5,2555 L896.5,2555 C898.1575,2555 899.5,2553.6575 899.5,2552 L899.5,2534.2115 L899.5,2531.2115 L899.5,2462 C899.5,2460.344 898.1575,2459 896.5,2459 L851.5,2459 Z M851.5,2531.2115 L851.5,2474.2115 L889,2474.2115 C889.8295,2474.2115 890.5,2473.5395 890.5,2472.7115 C890.5,2471.8835 889.8295,2471.2115 889,2471.2115 L851.5,2471.2115 L851.5,2462 L896.5,2462 L896.5,2531.2115 L851.5,2531.2115 Z M851.5,2552 L851.5,2534.2115 L896.5,2534.2115 L896.5,2552 L851.5,2552 Z M865,2465.2115 L877,2465.2115 C877.8295,2465.2115 878.5,2465.8835 878.5,2466.7115 C878.5,2467.5395 877.8295,2468.2115 877,2468.2115 L865,2468.2115 C864.172,2468.2115 863.5,2467.5395 863.5,2466.7115 C863.5,2465.8835 864.172,2465.2115 865,2465.2115 Z M881.5,2466.50045 C881.5,2465.67245 882.172,2465.00045 883,2465.00045 C883.828,2465.00045 884.5,2465.67245 884.5,2466.50045 C884.5,2467.32845 883.828,2468.00045 883,2468.00045 C882.172,2468.00045 881.5,2467.32845 881.5,2466.50045 Z M877,2543.00045 C877,2544.65495 875.6545,2546.00045 874,2546.00045 C872.3455,2546.00045 871,2544.65495 871,2543.00045 C871,2541.34595 872.3455,2540.00045 874,2540.00045 C875.6545,2540.00045 877,2541.34595 877,2543.00045 Z M880,2543.00045 C880,2539.68695 877.3135,2537.00045 874,2537.00045 C870.6865,2537.00045 868,2539.68695 868,2543.00045 C868,2546.31395 870.6865,2549.00045 874,2549.00045 C877.3135,2549.00045 880,2546.31395 880,2543.00045 Z" id="[autoentry]ico_mobile_gradient"></path>
        </g>
    </g>
</svg>