<?xml version="1.0" encoding="UTF-8"?>
<svg width="174px" height="108px" viewBox="0 0 174 108" version="1.1" xmlns="http://www.w3.org/2000/svg" xmlns:xlink="http://www.w3.org/1999/xlink">
    <!-- Generator: Sketch 46 (44423) - http://www.bohemiancoding.com/sketch -->
    <title>[autoentry]ico_accountants-bookkeepers</title>
    <desc>Created with Sketch.</desc>
    <defs>
        <linearGradient x1="19.0350244%" y1="76.2152778%" x2="77.5149571%" y2="17.1937004%" id="linearGradient-1">
            <stop stop-color="#1A66FF" offset="0%"></stop>
            <stop stop-color="#EB2150" offset="100%"></stop>
        </linearGradient>
    </defs>
    <g id="assets" stroke="none" stroke-width="1" fill="none" fill-rule="evenodd">
        <g id="Assets" transform="translate(-1719.000000, -2556.000000)" fill="url(#linearGradient-1)">
            <path d="M1891,2660 L1871,2660 L1871,2658 L1876,2658 C1877.104,2658 1878,2657.104 1878,2656 C1878,2654.896 1877.104,2654 1876,2654 L1871,2654 L1871,2649.747 C1874.63,2648.846 1877.333,2645.562 1877.333,2641.65 C1877.333,2641.379 1877.32,2641.109 1877.293,2640.84 C1878.703,2639.013 1879.5,2636.745 1879.5,2634.4 C1879.5,2632.32 1878.894,2630.325 1877.785,2628.631 C1877.964,2627.916 1878.056,2627.176 1878.056,2626.425 C1878.056,2624.226 1877.247,2622.136 1875.861,2620.517 C1875.88,2620.312 1875.889,2620.107 1875.889,2619.9 C1875.889,2616.095 1872.799,2613 1869,2613 C1865.201,2613 1862.111,2616.095 1862.111,2619.9 C1862.111,2620.107 1862.12,2620.312 1862.139,2620.517 C1860.753,2622.136 1859.944,2624.226 1859.944,2626.425 C1859.944,2627.176 1860.036,2627.916 1860.215,2628.631 C1859.106,2630.325 1858.5,2632.32 1858.5,2634.4 C1858.5,2636.745 1859.297,2639.013 1860.707,2640.84 C1860.68,2641.109 1860.667,2641.379 1860.667,2641.65 C1860.667,2645.562 1863.37,2648.846 1867,2649.747 L1867,2654 L1853,2654 L1853,2566 C1853.861,2566 1854.625,2565.449 1854.897,2564.633 L1856.897,2558.633 C1857.101,2558.022 1856.998,2557.353 1856.622,2556.831 C1856.246,2556.309 1855.643,2556 1855,2556 L1802,2556 C1801.357,2556 1800.754,2556.309 1800.378,2556.831 C1800.002,2557.353 1799.899,2558.022 1800.103,2558.633 L1802.103,2564.633 C1802.375,2565.449 1803.139,2566 1804,2566 L1804,2646 C1804,2647.104 1804.896,2648 1806,2648 C1807.104,2648 1808,2647.104 1808,2646 L1808,2566 L1849,2566 L1849,2654 L1841,2654 L1841,2635 C1841,2633.896 1840.104,2633 1839,2633 L1818,2633 C1816.896,2633 1816,2633.896 1816,2635 L1816,2654 L1796,2654 L1796,2581 C1797.104,2581 1798,2580.104 1798,2579 C1798,2577.896 1797.104,2577 1796,2577 L1748.441,2577 L1747.774,2575 L1798,2575 C1799.104,2575 1800,2574.104 1800,2573 C1800,2571.896 1799.104,2571 1798,2571 L1745,2571 C1744.357,2571 1743.754,2571.309 1743.378,2571.831 C1743.002,2572.353 1742.899,2573.022 1743.103,2573.633 L1745.103,2579.633 C1745.375,2580.449 1746.139,2581 1747,2581 L1747,2654 L1736,2654 C1734.896,2654 1734,2654.896 1734,2656 C1734,2657.104 1734.896,2658 1736,2658 L1867,2658 L1867,2660 L1721,2660 C1719.896,2660 1719,2660.896 1719,2662 C1719,2663.104 1719.896,2664 1721,2664 L1891,2664 C1892.104,2664 1893,2663.104 1893,2662 C1893,2660.896 1892.104,2660 1891,2660 L1891,2660 Z M1782,2633 L1761,2633 C1759.896,2633 1759,2633.896 1759,2635 L1759,2654 L1751,2654 L1751,2581 L1792,2581 L1792,2654 L1784,2654 L1784,2635 C1784,2633.896 1783.104,2633 1782,2633 L1782,2633 Z M1805.441,2562 L1804.774,2560 L1852.226,2560 L1851.559,2562 L1805.441,2562 Z M1864.667,2641.65 C1864.667,2640.929 1864.844,2640.25 1865.154,2639.651 C1863.547,2638.463 1862.5,2636.557 1862.5,2634.4 C1862.5,2632.367 1863.426,2630.553 1864.878,2629.356 C1864.292,2628.528 1863.944,2627.518 1863.944,2626.425 C1863.944,2624.391 1865.139,2622.642 1866.86,2621.832 C1866.399,2621.318 1866.111,2620.646 1866.111,2619.9 C1866.111,2618.298 1867.404,2617 1869,2617 C1870.596,2617 1871.889,2618.298 1871.889,2619.9 C1871.889,2620.646 1871.601,2621.318 1871.14,2621.832 C1872.861,2622.642 1874.056,2624.391 1874.056,2626.425 C1874.056,2627.518 1873.708,2628.528 1873.123,2629.356 C1874.574,2630.553 1875.5,2632.367 1875.5,2634.4 C1875.5,2636.557 1874.453,2638.463 1872.846,2639.651 C1873.156,2640.25 1873.333,2640.929 1873.333,2641.65 C1873.333,2644.052 1871.393,2646 1869,2646 C1866.607,2646 1864.667,2644.052 1864.667,2641.65 L1864.667,2641.65 Z M1763,2654 L1780,2654 L1780,2637 L1763,2637 L1763,2654 Z M1820,2654 L1820,2637 L1837,2637 L1837,2654 L1820,2654 Z M1762,2587.5 L1762,2591.5 C1762,2591.776 1761.776,2592 1761.5,2592 L1757.5,2592 C1757.224,2592 1757,2591.776 1757,2591.5 L1757,2587.5 C1757,2587.224 1757.224,2587 1757.5,2587 L1761.5,2587 C1761.776,2587 1762,2587.224 1762,2587.5 Z M1770,2587.5 L1770,2591.5 C1770,2591.776 1769.776,2592 1769.5,2592 L1765.5,2592 C1765.224,2592 1765,2591.776 1765,2591.5 L1765,2587.5 C1765,2587.224 1765.224,2587 1765.5,2587 L1769.5,2587 C1769.776,2587 1770,2587.224 1770,2587.5 Z M1778,2587.5 L1778,2591.5 C1778,2591.776 1777.776,2592 1777.5,2592 L1773.5,2592 C1773.224,2592 1773,2591.776 1773,2591.5 L1773,2587.5 C1773,2587.224 1773.224,2587 1773.5,2587 L1777.5,2587 C1777.776,2587 1778,2587.224 1778,2587.5 Z M1786,2587.5 L1786,2591.5 C1786,2591.776 1785.776,2592 1785.5,2592 L1781.5,2592 C1781.224,2592 1781,2591.776 1781,2591.5 L1781,2587.5 C1781,2587.224 1781.224,2587 1781.5,2587 L1785.5,2587 C1785.776,2587 1786,2587.224 1786,2587.5 Z M1762,2595.5 L1762,2599.5 C1762,2599.776 1761.776,2600 1761.5,2600 L1757.5,2600 C1757.224,2600 1757,2599.776 1757,2599.5 L1757,2595.5 C1757,2595.224 1757.224,2595 1757.5,2595 L1761.5,2595 C1761.776,2595 1762,2595.224 1762,2595.5 Z M1769.5,2595 C1769.776,2595 1770,2595.224 1770,2595.5 L1770,2599.5 C1770,2599.776 1769.776,2600 1769.5,2600 L1765.5,2600 C1765.224,2600 1765,2599.776 1765,2599.5 L1765,2595.5 C1765,2595.224 1765.224,2595 1765.5,2595 L1769.5,2595 Z M1777.5,2595 C1777.776,2595 1778,2595.224 1778,2595.5 L1778,2599.5 C1778,2599.776 1777.776,2600 1777.5,2600 L1773.5,2600 C1773.224,2600 1773,2599.776 1773,2599.5 L1773,2595.5 C1773,2595.224 1773.224,2595 1773.5,2595 L1777.5,2595 Z M1781.5,2600 C1781.224,2600 1781,2599.776 1781,2599.5 L1781,2595.5 C1781,2595.224 1781.224,2595 1781.5,2595 L1785.5,2595 C1785.776,2595 1786,2595.224 1786,2595.5 L1786,2599.5 C1786,2599.776 1785.776,2600 1785.5,2600 L1781.5,2600 Z M1762,2603.5 L1762,2607.5 C1762,2607.776 1761.776,2608 1761.5,2608 L1757.5,2608 C1757.224,2608 1757,2607.776 1757,2607.5 L1757,2603.5 C1757,2603.224 1757.224,2603 1757.5,2603 L1761.5,2603 C1761.776,2603 1762,2603.224 1762,2603.5 Z M1769.5,2603 C1769.776,2603 1770,2603.224 1770,2603.5 L1770,2607.5 C1770,2607.776 1769.776,2608 1769.5,2608 L1765.5,2608 C1765.224,2608 1765,2607.776 1765,2607.5 L1765,2603.5 C1765,2603.224 1765.224,2603 1765.5,2603 L1769.5,2603 Z M1777.5,2603 C1777.776,2603 1778,2603.224 1778,2603.5 L1778,2607.5 C1778,2607.776 1777.776,2608 1777.5,2608 L1773.5,2608 C1773.224,2608 1773,2607.776 1773,2607.5 L1773,2603.5 C1773,2603.224 1773.224,2603 1773.5,2603 L1777.5,2603 Z M1781.5,2608 C1781.224,2608 1781,2607.776 1781,2607.5 L1781,2603.5 C1781,2603.224 1781.224,2603 1781.5,2603 L1785.5,2603 C1785.776,2603 1786,2603.224 1786,2603.5 L1786,2607.5 C1786,2607.776 1785.776,2608 1785.5,2608 L1781.5,2608 Z M1762,2611.5 L1762,2615.5 C1762,2615.776 1761.776,2616 1761.5,2616 L1757.5,2616 C1757.224,2616 1757,2615.776 1757,2615.5 L1757,2611.5 C1757,2611.224 1757.224,2611 1757.5,2611 L1761.5,2611 C1761.776,2611 1762,2611.224 1762,2611.5 Z M1769.5,2611 C1769.776,2611 1770,2611.224 1770,2611.5 L1770,2615.5 C1770,2615.776 1769.776,2616 1769.5,2616 L1765.5,2616 C1765.224,2616 1765,2615.776 1765,2615.5 L1765,2611.5 C1765,2611.224 1765.224,2611 1765.5,2611 L1769.5,2611 Z M1777.5,2611 C1777.776,2611 1778,2611.224 1778,2611.5 L1778,2615.5 C1778,2615.776 1777.776,2616 1777.5,2616 L1773.5,2616 C1773.224,2616 1773,2615.776 1773,2615.5 L1773,2611.5 C1773,2611.224 1773.224,2611 1773.5,2611 L1777.5,2611 Z M1781.5,2616 C1781.224,2616 1781,2615.776 1781,2615.5 L1781,2611.5 C1781,2611.224 1781.224,2611 1781.5,2611 L1785.5,2611 C1785.776,2611 1786,2611.224 1786,2611.5 L1786,2615.5 C1786,2615.776 1785.776,2616 1785.5,2616 L1781.5,2616 Z M1762,2619.5 L1762,2623.5 C1762,2623.776 1761.776,2624 1761.5,2624 L1757.5,2624 C1757.224,2624 1757,2623.776 1757,2623.5 L1757,2619.5 C1757,2619.224 1757.224,2619 1757.5,2619 L1761.5,2619 C1761.776,2619 1762,2619.224 1762,2619.5 Z M1769.5,2619 C1769.776,2619 1770,2619.224 1770,2619.5 L1770,2623.5 C1770,2623.776 1769.776,2624 1769.5,2624 L1765.5,2624 C1765.224,2624 1765,2623.776 1765,2623.5 L1765,2619.5 C1765,2619.224 1765.224,2619 1765.5,2619 L1769.5,2619 Z M1777.5,2619 C1777.776,2619 1778,2619.224 1778,2619.5 L1778,2623.5 C1778,2623.776 1777.776,2624 1777.5,2624 L1773.5,2624 C1773.224,2624 1773,2623.776 1773,2623.5 L1773,2619.5 C1773,2619.224 1773.224,2619 1773.5,2619 L1777.5,2619 Z M1786,2623.5 C1786,2623.776 1785.776,2624 1785.5,2624 L1781.5,2624 C1781.224,2624 1781,2623.776 1781,2623.5 L1781,2619.5 C1781,2619.224 1781.224,2619 1781.5,2619 L1785.5,2619 C1785.776,2619 1786,2619.224 1786,2619.5 L1786,2623.5 Z M1819,2572.5 L1819,2576.5 C1819,2576.776 1818.776,2577 1818.5,2577 L1814.5,2577 C1814.224,2577 1814,2576.776 1814,2576.5 L1814,2572.5 C1814,2572.224 1814.224,2572 1814.5,2572 L1818.5,2572 C1818.776,2572 1819,2572.224 1819,2572.5 Z M1827,2572.5 L1827,2576.5 C1827,2576.776 1826.776,2577 1826.5,2577 L1822.5,2577 C1822.224,2577 1822,2576.776 1822,2576.5 L1822,2572.5 C1822,2572.224 1822.224,2572 1822.5,2572 L1826.5,2572 C1826.776,2572 1827,2572.224 1827,2572.5 Z M1835,2572.5 L1835,2576.5 C1835,2576.776 1834.776,2577 1834.5,2577 L1830.5,2577 C1830.224,2577 1830,2576.776 1830,2576.5 L1830,2572.5 C1830,2572.224 1830.224,2572 1830.5,2572 L1834.5,2572 C1834.776,2572 1835,2572.224 1835,2572.5 Z M1843,2572.5 L1843,2576.5 C1843,2576.776 1842.776,2577 1842.5,2577 L1838.5,2577 C1838.224,2577 1838,2576.776 1838,2576.5 L1838,2572.5 C1838,2572.224 1838.224,2572 1838.5,2572 L1842.5,2572 C1842.776,2572 1843,2572.224 1843,2572.5 Z M1819,2580.5 L1819,2584.5 C1819,2584.776 1818.776,2585 1818.5,2585 L1814.5,2585 C1814.224,2585 1814,2584.776 1814,2584.5 L1814,2580.5 C1814,2580.224 1814.224,2580 1814.5,2580 L1818.5,2580 C1818.776,2580 1819,2580.224 1819,2580.5 Z M1822,2584.5 L1822,2580.5 C1822,2580.224 1822.224,2580 1822.5,2580 L1826.5,2580 C1826.776,2580 1827,2580.224 1827,2580.5 L1827,2584.5 C1827,2584.776 1826.776,2585 1826.5,2585 L1822.5,2585 C1822.224,2585 1822,2584.776 1822,2584.5 Z M1830,2584.5 L1830,2580.5 C1830,2580.224 1830.224,2580 1830.5,2580 L1834.5,2580 C1834.776,2580 1835,2580.224 1835,2580.5 L1835,2584.5 C1835,2584.776 1834.776,2585 1834.5,2585 L1830.5,2585 C1830.224,2585 1830,2584.776 1830,2584.5 Z M1838,2584.5 L1838,2580.5 C1838,2580.224 1838.224,2580 1838.5,2580 L1842.5,2580 C1842.776,2580 1843,2580.224 1843,2580.5 L1843,2584.5 C1843,2584.776 1842.776,2585 1842.5,2585 L1838.5,2585 C1838.224,2585 1838,2584.776 1838,2584.5 Z M1819,2588.5 L1819,2592.5 C1819,2592.776 1818.776,2593 1818.5,2593 L1814.5,2593 C1814.224,2593 1814,2592.776 1814,2592.5 L1814,2588.5 C1814,2588.224 1814.224,2588 1814.5,2588 L1818.5,2588 C1818.776,2588 1819,2588.224 1819,2588.5 Z M1822,2592.5 L1822,2588.5 C1822,2588.224 1822.224,2588 1822.5,2588 L1826.5,2588 C1826.776,2588 1827,2588.224 1827,2588.5 L1827,2592.5 C1827,2592.776 1826.776,2593 1826.5,2593 L1822.5,2593 C1822.224,2593 1822,2592.776 1822,2592.5 Z M1830,2592.5 L1830,2588.5 C1830,2588.224 1830.224,2588 1830.5,2588 L1834.5,2588 C1834.776,2588 1835,2588.224 1835,2588.5 L1835,2592.5 C1835,2592.776 1834.776,2593 1834.5,2593 L1830.5,2593 C1830.224,2593 1830,2592.776 1830,2592.5 Z M1838,2592.5 L1838,2588.5 C1838,2588.224 1838.224,2588 1838.5,2588 L1842.5,2588 C1842.776,2588 1843,2588.224 1843,2588.5 L1843,2592.5 C1843,2592.776 1842.776,2593 1842.5,2593 L1838.5,2593 C1838.224,2593 1838,2592.776 1838,2592.5 Z M1819,2596.5 L1819,2600.5 C1819,2600.776 1818.776,2601 1818.5,2601 L1814.5,2601 C1814.224,2601 1814,2600.776 1814,2600.5 L1814,2596.5 C1814,2596.224 1814.224,2596 1814.5,2596 L1818.5,2596 C1818.776,2596 1819,2596.224 1819,2596.5 Z M1822,2600.5 L1822,2596.5 C1822,2596.224 1822.224,2596 1822.5,2596 L1826.5,2596 C1826.776,2596 1827,2596.224 1827,2596.5 L1827,2600.5 C1827,2600.776 1826.776,2601 1826.5,2601 L1822.5,2601 C1822.224,2601 1822,2600.776 1822,2600.5 Z M1830,2600.5 L1830,2596.5 C1830,2596.224 1830.224,2596 1830.5,2596 L1834.5,2596 C1834.776,2596 1835,2596.224 1835,2596.5 L1835,2600.5 C1835,2600.776 1834.776,2601 1834.5,2601 L1830.5,2601 C1830.224,2601 1830,2600.776 1830,2600.5 Z M1838,2600.5 L1838,2596.5 C1838,2596.224 1838.224,2596 1838.5,2596 L1842.5,2596 C1842.776,2596 1843,2596.224 1843,2596.5 L1843,2600.5 C1843,2600.776 1842.776,2601 1842.5,2601 L1838.5,2601 C1838.224,2601 1838,2600.776 1838,2600.5 Z M1819,2604.5 L1819,2608.5 C1819,2608.776 1818.776,2609 1818.5,2609 L1814.5,2609 C1814.224,2609 1814,2608.776 1814,2608.5 L1814,2604.5 C1814,2604.224 1814.224,2604 1814.5,2604 L1818.5,2604 C1818.776,2604 1819,2604.224 1819,2604.5 Z M1822,2608.5 L1822,2604.5 C1822,2604.224 1822.224,2604 1822.5,2604 L1826.5,2604 C1826.776,2604 1827,2604.224 1827,2604.5 L1827,2608.5 C1827,2608.776 1826.776,2609 1826.5,2609 L1822.5,2609 C1822.224,2609 1822,2608.776 1822,2608.5 Z M1830,2608.5 L1830,2604.5 C1830,2604.224 1830.224,2604 1830.5,2604 L1834.5,2604 C1834.776,2604 1835,2604.224 1835,2604.5 L1835,2608.5 C1835,2608.776 1834.776,2609 1834.5,2609 L1830.5,2609 C1830.224,2609 1830,2608.776 1830,2608.5 Z M1838,2608.5 L1838,2604.5 C1838,2604.224 1838.224,2604 1838.5,2604 L1842.5,2604 C1842.776,2604 1843,2604.224 1843,2604.5 L1843,2608.5 C1843,2608.776 1842.776,2609 1842.5,2609 L1838.5,2609 C1838.224,2609 1838,2608.776 1838,2608.5 Z M1819,2612.5 L1819,2616.5 C1819,2616.776 1818.776,2617 1818.5,2617 L1814.5,2617 C1814.224,2617 1814,2616.776 1814,2616.5 L1814,2612.5 C1814,2612.224 1814.224,2612 1814.5,2612 L1818.5,2612 C1818.776,2612 1819,2612.224 1819,2612.5 Z M1822,2616.5 L1822,2612.5 C1822,2612.224 1822.224,2612 1822.5,2612 L1826.5,2612 C1826.776,2612 1827,2612.224 1827,2612.5 L1827,2616.5 C1827,2616.776 1826.776,2617 1826.5,2617 L1822.5,2617 C1822.224,2617 1822,2616.776 1822,2616.5 Z M1830,2616.5 L1830,2612.5 C1830,2612.224 1830.224,2612 1830.5,2612 L1834.5,2612 C1834.776,2612 1835,2612.224 1835,2612.5 L1835,2616.5 C1835,2616.776 1834.776,2617 1834.5,2617 L1830.5,2617 C1830.224,2617 1830,2616.776 1830,2616.5 Z M1838,2616.5 L1838,2612.5 C1838,2612.224 1838.224,2612 1838.5,2612 L1842.5,2612 C1842.776,2612 1843,2612.224 1843,2612.5 L1843,2616.5 C1843,2616.776 1842.776,2617 1842.5,2617 L1838.5,2617 C1838.224,2617 1838,2616.776 1838,2616.5 Z M1819,2620.5 L1819,2624.5 C1819,2624.776 1818.776,2625 1818.5,2625 L1814.5,2625 C1814.224,2625 1814,2624.776 1814,2624.5 L1814,2620.5 C1814,2620.224 1814.224,2620 1814.5,2620 L1818.5,2620 C1818.776,2620 1819,2620.224 1819,2620.5 Z M1822,2624.5 L1822,2620.5 C1822,2620.224 1822.224,2620 1822.5,2620 L1826.5,2620 C1826.776,2620 1827,2620.224 1827,2620.5 L1827,2624.5 C1827,2624.776 1826.776,2625 1826.5,2625 L1822.5,2625 C1822.224,2625 1822,2624.776 1822,2624.5 Z M1830,2624.5 L1830,2620.5 C1830,2620.224 1830.224,2620 1830.5,2620 L1834.5,2620 C1834.776,2620 1835,2620.224 1835,2620.5 L1835,2624.5 C1835,2624.776 1834.776,2625 1834.5,2625 L1830.5,2625 C1830.224,2625 1830,2624.776 1830,2624.5 Z M1838,2624.5 L1838,2620.5 C1838,2620.224 1838.224,2620 1838.5,2620 L1842.5,2620 C1842.776,2620 1843,2620.224 1843,2620.5 L1843,2624.5 C1843,2624.776 1842.776,2625 1842.5,2625 L1838.5,2625 C1838.224,2625 1838,2624.776 1838,2624.5 Z" id="[autoentry]ico_accountants-bookkeepers"></path>
        </g>
    </g>
</svg>