<?xml version="1.0" encoding="UTF-8"?>
<svg width="245px" height="80px" viewBox="0 0 245 80" version="1.1" xmlns="http://www.w3.org/2000/svg" xmlns:xlink="http://www.w3.org/1999/xlink">
    <!-- Generator: Sketch 45.2 (43514) - http://www.bohemiancoding.com/sketch -->
    <title>Combined Shape</title>
    <desc>Created with Sketch.</desc>
    <defs></defs>
    <g id="assets" stroke="none" stroke-width="1" fill="none" fill-rule="evenodd">
        <g id="Assets" transform="translate(-415.000000, -2476.000000)" fill="#071D49">
            <path d="M659.564495,2545.18802 L659.564931,2545.18802 C659.564931,2551.1582 654.725529,2556 648.756331,2556 L425.810996,2556 C419.841253,2556.00044 415,2551.15875 415,2545.18802 L415,2486.811 C415,2480.84125 419.841253,2476 425.810996,2476 L648.755786,2476 C654.725093,2476 659.564495,2480.84125 659.564495,2486.811 L659.564495,2545.18802 Z M633.775446,2522.07681 C633.872491,2521.5955 633.918236,2521.00615 633.918236,2520.30712 L633.918127,2520.30712 C633.918127,2518.11648 633.400335,2516.27175 632.36998,2514.78024 C631.068748,2512.90262 629.15268,2511.96375 626.621666,2511.96375 C624.044906,2511.96375 621.997048,2512.90262 620.481795,2514.78024 C619.034178,2516.53903 618.311296,2518.74427 618.311296,2521.39237 C618.311296,2524.08992 619.089072,2526.24027 620.640922,2527.84157 C622.196584,2529.44287 624.334081,2530.2445 627.057225,2530.2445 C629.321066,2530.2445 631.282879,2529.88387 632.944627,2529.15925 L632.333384,2526.4507 C630.911363,2527.0052 629.330215,2527.28152 627.597127,2527.28152 C626.030573,2527.28152 624.755046,2526.87166 623.768584,2526.05359 C622.681483,2525.13858 622.115986,2523.81175 622.070241,2522.07681 L633.775446,2522.07681 Z M616.46842,2515.7887 L616.46842,2512.06809 C616.179245,2512.02235 615.853474,2511.99675 615.492959,2511.99675 C614.48101,2511.99675 613.542145,2512.30967 612.672879,2512.93736 C611.783462,2513.63465 611.133772,2514.56436 610.721957,2515.7191 L610.61402,2515.7191 L610.47123,2512.35912 L607.0728,2512.35912 C607.169736,2514.02076 607.219185,2515.86374 607.219185,2517.88775 L607.182589,2529.91873 L611.082472,2529.91873 L611.082472,2520.70424 C611.082472,2519.30792 611.408243,2518.15133 612.057933,2517.23621 C612.804559,2516.19856 613.866065,2515.68066 615.238637,2515.68066 C615.670493,2515.68066 616.082309,2515.71725 616.46842,2515.7887 Z M603.786011,2520.99341 C603.786011,2518.3672 603.039275,2516.22426 601.54232,2514.56436 C599.977618,2512.85317 597.904055,2511.99861 595.327405,2511.99861 C592.6536,2511.99861 590.527104,2512.86602 588.951401,2514.60096 C587.371995,2516.33405 586.58507,2518.56304 586.58507,2521.28433 C586.58507,2523.88494 587.350103,2526.04259 588.879952,2527.75182 C590.409909,2529.46117 592.461471,2530.31584 595.03823,2530.31584 C597.711925,2530.31584 599.856829,2529.42642 601.472722,2527.64203 C603.01368,2525.90895 603.786011,2523.69281 603.786011,2520.99341 Z M584.381678,2515.2854 L584.381678,2512.35357 L580.08098,2512.35357 L580.08098,2507.98153 L576.248734,2509.13812 L576.248734,2512.35357 L573.686678,2512.35357 L573.686678,2515.28169 L576.248734,2515.28169 L576.248734,2524.13382 C576.248734,2526.35006 576.684293,2527.9275 577.549966,2528.86822 C578.419233,2529.80709 579.623419,2530.27739 581.164378,2530.27739 C582.418013,2530.27739 583.429961,2530.13275 584.198588,2529.84553 L584.090652,2526.88255 C583.6332,2527.00334 583.054851,2527.06379 582.357564,2527.06379 C580.838607,2527.06379 580.08098,2525.98039 580.08098,2523.81175 L580.08098,2515.2854 L584.381678,2515.2854 Z M571.481435,2523.08887 C571.481435,2521.40512 570.98913,2519.99421 570.002777,2518.86681 C569.012613,2517.73581 567.473615,2516.74946 565.37816,2515.90579 C563.665222,2515.2305 562.484779,2514.60455 561.835089,2514.02631 C561.088462,2513.40037 560.716946,2512.60429 560.716946,2511.64168 C560.716946,2510.77242 561.042717,2510.03853 561.692298,2509.43644 C562.461035,2508.76301 563.533432,2508.42438 564.906005,2508.42438 C566.642687,2508.42438 568.194646,2508.79775 569.567109,2509.54438 L570.54257,2506.36378 C569.073062,2505.5933 567.232037,2505.20719 565.015793,2505.20719 C562.530524,2505.20719 560.543006,2505.84588 559.053348,2507.12511 C557.558134,2508.40249 556.811508,2510.04398 556.811508,2512.04609 C556.811508,2515.10971 558.941708,2517.43934 563.20581,2519.02975 C564.772363,2519.60984 565.894209,2520.23753 566.565791,2520.91292 C567.241186,2521.58821 567.577848,2522.42088 567.577848,2523.40908 C567.577848,2524.51807 567.169736,2525.4076 566.351769,2526.07003 C565.52999,2526.73247 564.386252,2527.06564 562.916635,2527.06564 C560.868777,2527.06564 558.989304,2526.54589 557.276366,2525.50998 L556.372355,2528.76203 C557.962652,2529.77408 560.063553,2530.27924 562.684206,2530.27924 C565.522693,2530.27924 567.731639,2529.5691 569.318234,2528.14719 C570.762256,2526.84596 571.481435,2525.16047 571.481435,2523.08887 Z M555.036814,2497.37845 C555.036814,2497.98915 555.15586,2498.42438 555.396131,2498.68306 C555.635313,2498.94174 555.965767,2499.07113 556.390762,2499.07113 C556.734613,2499.07113 557.013876,2499.03105 557.226264,2498.951 L557.198599,2498.13499 C557.072364,2498.16886 556.912256,2498.18531 556.719255,2498.18531 C556.30243,2498.18531 556.092111,2497.88655 556.092111,2497.28914 L556.092111,2494.93849 L557.275604,2494.93849 L557.275604,2494.13175 L556.091022,2494.13175 L556.091022,2492.92767 L555.036814,2493.24581 L555.036814,2494.13273 L554.329616,2494.13273 L554.329616,2494.93849 L555.036814,2494.93849 L555.036814,2497.37845 Z M550.036868,2498.97158 L550.036868,2496.07276 C550.036868,2495.3624 549.852145,2494.82762 549.47954,2494.46939 C549.18078,2494.17684 548.805126,2494.03111 548.354427,2494.03111 C547.996199,2494.03111 547.670864,2494.12249 547.378312,2494.30318 C547.134012,2494.45817 546.947219,2494.65215 546.820984,2494.88719 L546.791141,2494.88719 L546.740821,2494.13066 L545.79651,2494.13066 C545.822215,2494.6295 545.834522,2495.09043 545.834522,2495.51543 L545.834522,2498.97049 L546.911276,2498.97049 L546.911276,2496.10053 C546.911276,2495.78326 547.010826,2495.50617 547.209927,2495.27113 C547.409136,2495.03608 547.666725,2494.919 547.985961,2494.919 C548.637829,2494.919 548.962184,2495.34606 548.962184,2496.20008 L548.962184,2498.97158 L550.036868,2498.97158 Z M548.89825,2520.92207 C548.89825,2518.24827 548.204666,2516.09247 546.822944,2514.45272 C545.435777,2512.81472 543.706283,2511.99675 541.636533,2511.99675 C538.98473,2511.99675 537.010064,2513.04356 535.710684,2515.14075 L535.637491,2515.14075 L535.419766,2512.35727 L531.988335,2512.35727 C532.083528,2514.33379 532.132868,2516.26086 532.132868,2518.13848 L532.132868,2537.07425 L536.034603,2537.07425 L536.034603,2527.82327 L536.107904,2527.82327 C537.118001,2529.48491 538.779748,2530.31584 541.092928,2530.31584 C543.23598,2530.31584 545.031368,2529.54536 546.475281,2528.00255 C548.091174,2526.26946 548.89825,2523.90868 548.89825,2520.92207 Z M531.010151,2498.39465 C531.395064,2498.85243 531.880616,2499.08137 532.463649,2499.08137 C533.193393,2499.08137 533.712818,2498.78577 534.017677,2498.19446 L534.047412,2498.19446 L534.097731,2498.97158 L535.052389,2498.97158 C535.026685,2498.57327 535.014377,2498.13902 535.014377,2497.66796 L535.014377,2491.91245 L533.937623,2491.91245 L533.937623,2494.69016 L533.917147,2494.69016 C533.658469,2494.25177 533.20374,2494.03318 532.553941,2494.03318 C531.962739,2494.03318 531.46586,2494.25896 531.060471,2494.71064 C530.641576,2495.1951 530.433218,2495.82954 530.433218,2496.61266 C530.433218,2497.34251 530.625238,2497.93687 531.010151,2498.39465 Z M527.973762,2498.97158 L528.939747,2498.97158 C528.893566,2498.68622 528.869931,2498.3012 528.869931,2497.81783 L528.869931,2496.03583 C528.869931,2494.70138 528.235598,2494.03416 526.970963,2494.03416 C526.316045,2494.03416 525.760677,2494.17379 525.311067,2494.45196 L525.529772,2495.15818 C525.89312,2494.92009 526.313975,2494.79995 526.79125,2494.79995 C527.461634,2494.79995 527.796227,2495.1181 527.796227,2495.75559 L527.796227,2495.84588 C526.900058,2495.83869 526.204187,2495.99172 525.709377,2496.30377 C525.213586,2496.61582 524.967216,2497.06641 524.967216,2497.65761 C524.967216,2498.04873 525.09356,2498.3782 525.346029,2498.64309 C525.624204,2498.93455 525.993759,2499.08137 526.450557,2499.08137 C527.062235,2499.08137 527.53341,2498.85864 527.863974,2498.41415 L527.893708,2498.41415 L527.973762,2498.97158 Z M528.699694,2520.92207 C528.699694,2518.24827 528.007962,2516.09247 526.620686,2514.45272 C525.237221,2512.81472 523.507728,2511.99675 521.436126,2511.99675 C518.786174,2511.99675 516.811508,2513.04356 515.510276,2515.14075 L515.437084,2515.14075 L515.219359,2512.35727 L511.787928,2512.35727 C511.883121,2514.33379 511.932461,2516.26086 511.932461,2518.13848 L511.932461,2537.07425 L515.834305,2537.07425 L515.834305,2527.82327 L515.907388,2527.82327 C516.919445,2529.48491 518.581192,2530.31584 520.894372,2530.31584 C523.037424,2530.31584 524.832703,2529.54536 526.278468,2528.00255 C527.892619,2526.26946 528.699694,2523.90868 528.699694,2520.92207 Z M511.605601,2495.27113 C511.80579,2495.03608 512.063488,2494.919 512.382615,2494.919 C513.033503,2494.919 513.357858,2495.34606 513.357858,2496.20008 L513.357858,2498.97158 L514.433522,2498.97158 L514.433522,2496.07276 C514.433522,2495.3624 514.24771,2494.82762 513.876194,2494.46939 C513.577435,2494.17684 513.20178,2494.03111 512.750101,2494.03111 C512.392962,2494.03111 512.066537,2494.12249 511.774967,2494.30318 C511.529685,2494.45817 511.342893,2494.65215 511.217638,2494.88719 L511.187795,2494.88719 L511.137584,2494.13066 L510.192184,2494.13066 C510.21778,2494.6295 510.231176,2495.09043 510.231176,2495.51543 L510.231176,2498.97049 L511.30695,2498.97049 L511.30695,2496.10053 C511.30695,2495.78326 511.40748,2495.50617 511.605601,2495.27113 Z M508.856752,2494.13371 L508.856752,2494.13273 L508.856426,2494.13371 L507.800475,2494.13371 L507.213303,2496.39406 C507.067572,2496.95858 506.957784,2497.48933 506.884809,2497.98719 L506.855075,2497.98719 C506.755525,2497.47593 506.62624,2496.94529 506.467113,2496.39406 L505.809145,2494.13371 L504.932471,2494.13371 L504.24575,2496.44329 C504.058957,2497.06641 503.926514,2497.58169 503.84646,2497.9861 L503.826964,2497.9861 C503.739721,2497.49543 503.630913,2496.97709 503.49847,2496.43305 L502.951379,2494.13273 L501.845871,2494.13273 L503.269635,2498.97158 L504.266335,2498.97158 L504.932471,2496.87036 C505.098788,2496.35921 505.228072,2495.83869 505.321523,2495.30707 L505.341019,2495.30707 C505.441659,2495.82432 505.570943,2496.34581 505.730071,2496.87036 L506.357215,2498.97158 L507.342697,2498.97158 L508.856426,2494.13371 L508.856752,2494.13371 Z M508.537734,2529.91873 L500.65922,2505.56401 L495.816878,2505.56401 L487.976812,2529.91873 L492.02308,2529.91873 L494.191727,2522.76495 L502.104985,2522.76495 L504.381569,2529.91873 L508.537734,2529.91873 Z M475.037903,2536.08463 C477.77281,2532.20577 478.87102,2528.38561 478.914696,2528.18956 C478.825275,2528.15895 471.533824,2525.37623 471.46183,2516.95803 C471.398658,2509.93452 477.212759,2506.51757 477.478625,2506.35845 C474.185845,2501.55782 469.082211,2500.90181 467.288783,2500.84953 C463.002244,2500.3984 458.844445,2503.41442 456.660876,2503.41442 C454.43374,2503.41442 451.071254,2500.8931 447.447366,2500.96716 C442.783865,2501.03916 438.421193,2503.7391 436.028395,2507.93186 C431.090423,2516.48076 434.773235,2529.0438 439.504264,2535.95393 C441.870814,2539.3382 444.636217,2543.11686 448.255748,2542.98398 C451.796968,2542.83792 453.119765,2540.72635 457.393125,2540.72635 C461.627275,2540.72635 462.869365,2542.98398 466.56089,2542.89891 C470.361332,2542.83792 472.754131,2539.4995 475.037903,2536.08463 Z M459.145165,2491.62938 C457.388768,2493.68225 455.81971,2497.04691 456.225099,2500.21106 C459.32161,2500.44207 462.501116,2498.64854 464.488526,2496.30377 C466.393158,2493.92197 467.696241,2490.68147 467.334528,2487.39305 C464.577838,2487.51514 461.130395,2489.29986 459.145165,2491.62938 Z M496.705314,2494.75072 C496.270082,2495.228 496.053446,2495.84283 496.053446,2496.59218 C496.053446,2497.30864 496.263873,2497.903 496.684729,2498.37417 C497.106673,2498.84633 497.67228,2499.08137 498.382528,2499.08137 C499.119569,2499.08137 499.709791,2498.83609 500.155261,2498.34433 C500.580256,2497.86608 500.792753,2497.25625 500.792753,2496.51213 C500.792753,2495.78946 500.586355,2495.19826 500.175847,2494.74037 C499.743664,2494.2692 499.172938,2494.03416 498.462582,2494.03416 C497.725649,2494.03416 497.140547,2494.27334 496.705314,2494.75072 Z M516.325303,2498.97147 L517.399987,2498.97147 L517.399987,2491.91245 L516.325303,2491.91245 L516.325303,2498.97147 Z M519.645965,2494.75072 C519.210842,2495.228 518.994206,2495.84283 518.994206,2496.59218 C518.994206,2497.30864 519.204633,2497.903 519.625489,2498.37417 C520.046344,2498.84633 520.61195,2499.08137 521.323288,2499.08137 C522.05924,2499.08137 522.650551,2498.83609 523.096021,2498.34433 C523.520907,2497.86608 523.733404,2497.25625 523.733404,2496.51213 C523.733404,2495.78946 523.527115,2495.19826 523.116498,2494.74037 C522.683335,2494.2692 522.113698,2494.03416 521.402361,2494.03416 C520.6663,2494.03416 520.081198,2494.27334 519.645965,2494.75072 Z M540.165282,2494.75072 C539.730049,2495.228 539.513413,2495.84283 539.513413,2496.59218 C539.513413,2497.30864 539.723841,2497.903 540.144696,2498.37417 C540.567621,2498.84633 541.133227,2499.08137 541.842495,2499.08137 C542.580517,2499.08137 543.169758,2498.83609 543.615229,2498.34433 C544.040223,2497.86608 544.25272,2497.25625 544.25272,2496.51213 C544.25272,2495.78946 544.046322,2495.19826 543.635814,2494.74037 C543.204612,2494.2692 542.632906,2494.03416 541.923638,2494.03416 C541.185616,2494.03416 540.600514,2494.27334 540.165282,2494.75072 Z M541.873308,2498.29407 C541.454522,2498.29407 541.130167,2498.10106 540.897084,2497.71517 C540.705172,2497.39594 540.608672,2497.01298 540.608672,2496.56653 C540.608672,2496.10668 540.704192,2495.71763 540.897084,2495.3984 C541.123958,2495.01239 541.452452,2494.8195 541.883546,2494.8195 C542.302332,2494.8195 542.622657,2495.01239 542.849531,2495.3984 C543.041443,2495.71763 543.137943,2496.10048 543.137943,2496.54704 C543.137943,2496.99349 543.037304,2497.37949 542.839184,2497.70482 C542.6073,2498.09801 542.283925,2498.29407 541.873308,2498.29407 Z M489.262359,2492.34975 L489.262359,2498.951 C489.700642,2499.00437 490.224097,2499.03105 490.835884,2499.03105 C492.069696,2499.03105 493.022284,2498.74885 493.69256,2498.18531 C494.416314,2497.5745 494.778572,2496.66505 494.778572,2495.45694 C494.778572,2494.38117 494.442889,2493.55481 493.773703,2492.9769 C493.176293,2492.46575 492.290471,2492.21012 491.115147,2492.21012 C490.449991,2492.21012 489.834065,2492.25739 489.262359,2492.34975 Z M558.769074,2491.91245 L558.769074,2498.97049 L559.843867,2498.97049 L559.843867,2496.06045 C559.843867,2495.90851 559.862274,2495.77923 559.894078,2495.67347 C560.08098,2495.17049 560.421672,2494.919 560.920621,2494.919 C561.570311,2494.919 561.894666,2495.35325 561.894666,2496.22056 L561.894666,2498.97158 L562.971529,2498.97158 L562.971529,2496.09432 C562.971529,2495.37787 562.788766,2494.83589 562.42433,2494.47146 C562.131779,2494.17891 561.763312,2494.03318 561.317842,2494.03318 C560.688628,2494.03318 560.203076,2494.29795 559.864344,2494.82871 L559.843867,2494.82871 L559.843867,2491.91245 L558.769074,2491.91245 Z M565.141483,2494.80093 C564.742193,2495.2855 564.544073,2495.89315 564.544073,2496.62301 C564.544073,2497.36615 564.75657,2497.95844 565.185595,2498.39977 C565.612658,2498.84121 566.20288,2499.06188 566.95212,2499.06188 C567.577304,2499.06188 568.117206,2498.96233 568.576073,2498.76312 L568.407687,2498.01595 C568.015586,2498.16886 567.580354,2498.24478 567.103079,2498.24478 C566.671985,2498.24478 566.319857,2498.13183 566.046802,2497.90605 C565.748151,2497.65358 565.594142,2497.28914 565.579765,2496.81078 L568.805997,2496.81078 C568.831592,2496.67844 568.84597,2496.51616 568.84597,2496.32327 C568.84597,2495.71965 568.703288,2495.21155 568.414876,2494.80093 C568.057737,2494.28358 567.529054,2494.02501 566.833074,2494.02501 C566.121737,2494.02501 565.5582,2494.28358 565.141483,2494.80093 Z M567.611155,2495.21875 C567.756886,2495.45074 567.827791,2495.72587 567.819514,2496.0451 L565.579744,2496.0451 C565.614706,2495.71966 565.720356,2495.44148 565.898979,2495.20851 C566.117685,2494.91596 566.404028,2494.77023 566.755067,2494.77023 C567.13998,2494.77023 567.424363,2494.9201 567.611155,2495.21875 Z M526.043,2497.53756 C526.043,2496.86728 526.636272,2496.54184 527.822923,2496.56243 L527.822923,2497.30862 C527.822923,2497.38159 527.816714,2497.4452 527.805496,2497.49748 C527.759315,2497.73056 527.635041,2497.9204 527.432891,2498.07027 C527.231612,2498.21916 527.010946,2498.2941 526.774923,2498.2941 C526.564495,2498.2941 526.387941,2498.23147 526.249289,2498.10524 C526.110747,2497.97889 526.043,2497.79003 526.043,2497.53756 Z M498.131899,2508.81606 C498.733992,2511.22443 499.142104,2512.75439 499.359829,2513.40408 L501.418688,2519.76364 L494.879854,2519.76364 L496.902116,2513.40408 C497.432869,2511.38182 497.81898,2509.85186 498.058706,2508.81606 L498.131899,2508.81606 Z M540.370089,2515.10238 C541.79211,2515.10238 542.921253,2515.68073 543.764924,2516.83732 C544.537255,2517.94631 544.923366,2519.35548 544.923366,2521.06472 L544.923366,2521.06483 C544.923366,2522.92045 544.513402,2524.41381 543.693475,2525.54665 C542.875508,2526.67765 541.731661,2527.245 540.262152,2527.245 C539.006666,2527.245 537.989163,2526.80388 537.205831,2525.92547 C536.426312,2525.0452 536.034647,2523.96725 536.034647,2522.68987 L536.034647,2519.76174 C536.034647,2519.45068 536.096838,2519.05531 536.215776,2518.57215 C536.455611,2517.53635 536.966105,2516.70009 537.749436,2516.05954 C538.532659,2515.42445 539.405629,2515.10238 540.370089,2515.10238 Z M595.188274,2514.85165 C596.703528,2514.85165 597.87297,2515.55079 598.691046,2516.95256 C599.391927,2518.111 599.737848,2519.50002 599.737848,2521.11972 C599.737848,2522.73747 599.375481,2524.14108 598.656301,2525.32152 C597.81263,2526.74529 596.643188,2527.45902 595.153529,2527.45902 C593.632721,2527.45902 592.45413,2526.75999 591.610458,2525.35812 C590.909577,2524.20153 590.563657,2522.81251 590.563657,2521.19291 C590.563657,2519.52387 590.909577,2518.11285 591.610458,2516.95256 C592.428534,2515.55254 593.619869,2514.85165 595.188274,2514.85165 Z M520.171533,2515.10238 C521.591703,2515.10238 522.72444,2515.68073 523.568111,2516.83732 C524.340442,2517.94631 524.72481,2519.35548 524.72481,2521.06472 L524.72481,2521.06483 C524.72481,2522.92045 524.314846,2524.41381 523.494919,2525.54665 C522.676952,2526.67765 521.533105,2527.245 520.063597,2527.245 C518.811813,2527.245 517.79431,2526.80574 517.010979,2525.92547 C516.227756,2525.0452 515.836091,2523.96725 515.836091,2522.68987 L515.836091,2519.76174 C515.836091,2519.45068 515.896431,2519.05531 516.01722,2518.57215 C516.257055,2517.53635 516.769401,2516.70009 517.552732,2516.05954 C518.334103,2515.42445 519.208925,2515.10238 520.171533,2515.10238 Z M498.413362,2498.29407 C497.994576,2498.29407 497.670221,2498.10106 497.437139,2497.71517 C497.245227,2497.39594 497.148726,2497.01298 497.148726,2496.56653 C497.148726,2496.10668 497.244246,2495.71763 497.437139,2495.3984 C497.663032,2495.01239 497.991417,2494.8195 498.4236,2494.8195 C498.841406,2494.8195 499.162711,2495.01239 499.388496,2495.3984 C499.580517,2495.71763 499.676908,2496.10048 499.676908,2496.54704 C499.676908,2496.99349 499.577358,2497.37949 499.378258,2497.70482 C499.146265,2498.09801 498.823979,2498.29407 498.413362,2498.29407 Z M521.354068,2498.29407 C520.935281,2498.29407 520.610927,2498.10106 520.377844,2497.71517 C520.185932,2497.39594 520.089432,2497.01298 520.089432,2496.56653 C520.089432,2496.10668 520.184952,2495.71763 520.377844,2495.3984 C520.602649,2495.01239 520.931143,2494.8195 521.364306,2494.8195 C521.781131,2494.8195 522.103417,2495.01239 522.328221,2495.3984 C522.520133,2495.71763 522.616634,2496.10048 522.616634,2496.54704 C522.616634,2496.99349 522.518064,2497.37949 522.317874,2497.70482 C522.085881,2498.09801 521.764685,2498.29407 521.354068,2498.29407 Z M626.330705,2514.66865 C627.727021,2514.66865 628.764674,2515.21041 629.439959,2516.29555 C629.968643,2517.13878 630.222964,2518.13744 630.197695,2519.29327 L622.070306,2519.29327 C622.189243,2518.11468 622.575354,2517.10262 623.225044,2516.25895 C624.017525,2515.19755 625.055177,2514.66865 626.330705,2514.66865 Z M492.970995,2497.48829 C492.523455,2497.94606 491.888033,2498.17501 491.064838,2498.17501 C490.71271,2498.17501 490.470478,2498.16575 490.338035,2498.14527 L490.338035,2493.12681 C490.577217,2493.07954 490.865629,2493.057 491.20447,2493.057 C492.001961,2493.057 492.607648,2493.26644 493.022295,2493.68414 C493.437051,2494.10293 493.644321,2494.7035 493.644321,2495.48661 C493.644321,2496.36328 493.418536,2497.03051 492.970995,2497.48829 Z M533.628669,2497.81676 C533.414103,2498.08262 533.13179,2498.21507 532.778789,2498.21507 C532.385599,2498.21507 532.071482,2498.05594 531.838509,2497.73768 C531.617843,2497.43903 531.507945,2497.05096 531.507945,2496.57271 C531.507945,2496.07485 531.623942,2495.66728 531.852886,2495.34804 C532.08379,2495.02881 532.397907,2494.86979 532.799266,2494.86979 C533.07744,2494.86979 533.318691,2494.95801 533.518772,2495.13359 C533.717001,2495.30905 533.847266,2495.52667 533.907824,2495.78535 C533.92732,2495.87161 533.937667,2495.98445 533.937667,2496.12408 L533.937667,2496.93094 C533.937667,2497.27577 533.836047,2497.57148 533.628669,2497.81676 Z" id="Combined-Shape"></path>
        </g>
    </g>
</svg>