<?xml version="1.0" encoding="UTF-8"?>
<svg width="40px" height="39px" viewBox="0 0 40 39" version="1.1" xmlns="http://www.w3.org/2000/svg" xmlns:xlink="http://www.w3.org/1999/xlink">
    <!-- Generator: Sketch 45.2 (43514) - http://www.bohemiancoding.com/sketch -->
    <title>[autoentry]ico_testimonial_xero</title>
    <desc>Created with Sketch.</desc>
    <defs></defs>
    <g id="assets" stroke="none" stroke-width="1" fill="none" fill-rule="evenodd">
        <g id="Assets" transform="translate(-1004.000000, -1065.000000)" fill="#1AB4D7">
            <path d="M1023.99544,1103.79053 C1012.95223,1103.79053 1003.99998,1095.11809 1003.99998,1084.41993 C1003.99998,1073.72191 1012.95223,1065.04943 1023.99544,1065.04943 C1035.03866,1065.04943 1043.9908,1073.72191 1043.9908,1084.41993 C1043.9908,1095.11809 1035.03866,1103.79053 1023.99544,1103.79053 Z M1013.57149,1084.364 L1016.98389,1081.05008 C1017.09701,1080.93838 1017.16012,1080.7905 1017.16012,1080.63367 C1017.16012,1080.30676 1016.88583,1080.04135 1016.54843,1080.04135 C1016.3841,1080.04135 1016.23002,1080.10372 1016.11379,1080.2177 C1016.11348,1080.21834 1012.70451,1083.51886 1012.70451,1083.51886 L1009.27991,1080.21276 C1009.1642,1080.10224 1009.01088,1080.04135 1008.84828,1080.04135 C1008.51129,1080.04135 1008.23695,1080.30667 1008.23695,1080.63317 C1008.23695,1080.79247 1008.30257,1080.94194 1008.42042,1081.05458 L1011.83231,1084.3594 L1008.42216,1087.66917 C1008.30231,1087.78349 1008.23695,1087.9333 1008.23695,1088.09329 C1008.23695,1088.42009 1008.51129,1088.68522 1008.84828,1088.68522 C1009.01114,1088.68522 1009.16461,1088.62398 1009.27991,1088.51222 L1012.6992,1085.20429 L1016.10542,1088.50016 C1016.22624,1088.62116 1016.38211,1088.68561 1016.54843,1088.68561 C1016.88553,1088.68561 1017.15981,1088.42009 1017.15981,1088.09329 C1017.15981,1087.93557 1017.09675,1087.78744 1016.98195,1087.67574 L1013.57149,1084.364 Z M1030.48462,1084.36353 C1030.48462,1086.75798 1032.49585,1088.7061 1034.96794,1088.7061 C1037.43998,1088.7061 1039.45222,1086.75798 1039.45222,1084.36353 C1039.45222,1081.96874 1037.43998,1080.02012 1034.96794,1080.02012 C1032.49585,1080.02012 1030.48462,1081.96874 1030.48462,1084.36353 Z M1031.75034,1084.36353 C1031.75034,1082.64484 1033.1936,1081.24638 1034.96794,1081.24638 C1036.74141,1081.24638 1038.18503,1082.64484 1038.18503,1084.36353 C1038.18503,1086.08183 1036.74141,1087.4797 1034.96794,1087.4797 C1033.1936,1087.4797 1031.75034,1086.08183 1031.75034,1084.36353 Z M1033.85755,1084.363 C1033.85755,1084.95651 1034.35571,1085.43931 1034.96913,1085.43931 C1035.58107,1085.43931 1036.07943,1084.95651 1036.07943,1084.363 C1036.07943,1083.76935 1035.58107,1083.28665 1034.96913,1083.28665 C1034.35571,1083.28665 1033.85755,1083.76935 1033.85755,1084.363 Z M1030.16639,1080.09438 L1029.97828,1080.09384 C1029.41359,1080.09384 1028.86899,1080.26638 1028.4141,1080.60599 C1028.35415,1080.34027 1028.10899,1080.1403 1027.81695,1080.1403 C1027.48083,1080.1403 1027.21149,1080.40122 1027.21068,1080.72748 C1027.21068,1080.72866 1027.21272,1088.04253 1027.21272,1088.04253 C1027.21359,1088.36825 1027.48782,1088.63297 1027.82415,1088.63297 C1028.16042,1088.63297 1028.43456,1088.36825 1028.43542,1088.04184 C1028.43542,1088.04035 1028.43573,1083.54397 1028.43573,1083.54397 C1028.43573,1082.04488 1028.57721,1081.43941 1029.90277,1081.27897 C1030.02532,1081.2642 1030.15859,1081.26652 1030.1591,1081.26652 C1030.52185,1081.25446 1030.77961,1081.01296 1030.77961,1080.68665 C1030.77961,1080.36009 1030.5044,1080.09438 1030.16639,1080.09438 Z M1025.97109,1083.53667 C1025.70762,1082.32825 1025.02471,1081.33563 1023.98476,1080.69818 C1022.46461,1079.76324 1020.45726,1079.81494 1018.98899,1080.82649 C1017.79129,1081.65191 1017.09991,1083.00213 1017.09991,1084.39308 C1017.09991,1084.74183 1017.14333,1085.09384 1017.23369,1085.44036 C1017.68593,1087.1638 1019.21532,1088.46845 1021.03869,1088.68469 C1021.57981,1088.74815 1022.10644,1088.71775 1022.65185,1088.58094 C1023.12047,1088.47052 1023.57394,1088.28636 1023.99175,1088.02697 C1024.42542,1087.75691 1024.78777,1087.4008 1025.13864,1086.9745 C1025.14573,1086.96664 1025.15287,1086.95972 1025.15991,1086.95146 C1025.40348,1086.65886 1025.35828,1086.24279 1025.09068,1086.04415 C1024.86496,1085.87655 1024.48604,1085.80864 1024.18787,1086.17854 C1024.12379,1086.26696 1024.05231,1086.35796 1023.97359,1086.449 C1023.73655,1086.70275 1023.44236,1086.94865 1023.08991,1087.13938 C1022.64144,1087.37149 1022.13032,1087.50415 1021.58701,1087.50711 C1019.80864,1087.48793 1018.85701,1086.28535 1018.51848,1085.42697 C1018.4594,1085.26673 1018.41379,1085.10046 1018.38206,1084.92925 C1018.37787,1084.89722 1018.37481,1084.86628 1018.37359,1084.83781 C1018.74129,1084.83781 1024.75537,1084.83682 1024.75537,1084.83682 C1025.63027,1084.81903 1026.10114,1084.22078 1025.97109,1083.53667 Z M1018.42665,1083.64852 C1018.42665,1083.63231 1018.42797,1083.61541 1018.42879,1083.59875 C1018.78374,1082.23939 1020.05456,1081.23347 1021.56803,1081.23347 C1023.09981,1081.23347 1024.38226,1082.2641 1024.71905,1083.64852 L1018.42665,1083.64852 Z" id="[autoentry]ico_testimonial_xero"></path>
        </g>
    </g>
</svg>