<?xml version="1.0" encoding="UTF-8"?>
<svg width="84px" height="96px" viewBox="0 0 84 96" version="1.1" xmlns="http://www.w3.org/2000/svg" xmlns:xlink="http://www.w3.org/1999/xlink">
    <!-- Generator: Sketch 45.2 (43514) - http://www.bohemiancoding.com/sketch -->
    <title>[autoentry]ico_save-time_gradient</title>
    <desc>Created with Sketch.</desc>
    <defs>
        <linearGradient x1="24.9077984%" y1="75.8864919%" x2="75.0208884%" y2="32.1965786%" id="linearGradient-1">
            <stop stop-color="#1A66FF" offset="0%"></stop>
            <stop stop-color="#EB2150" offset="100%"></stop>
        </linearGradient>
    </defs>
    <g id="assets" stroke="none" stroke-width="1" fill="none" fill-rule="evenodd">
        <g id="Assets" transform="translate(-219.000000, -2456.000000)" fill="url(#linearGradient-1)">
            <path d="M261.000197,2467.99961 C284.196306,2467.99961 303.000394,2486.80369 303.000394,2509.9998 C303.000394,2533.19591 284.196306,2552 261.000197,2552 C237.804088,2552 219,2533.19591 219,2509.9998 C219,2486.80369 237.804088,2467.99961 261.000197,2467.99961 Z M262.500204,2548.96249 C282.813299,2548.18998 299.188876,2531.81291 299.96288,2511.49981 L295.500359,2511.49981 C294.670855,2511.49981 294.000352,2510.82931 294.000352,2509.9998 C294.000352,2509.1718 294.670855,2508.4998 295.500359,2508.4998 L299.96288,2508.4998 C299.188876,2488.1882 282.813299,2471.81112 262.500204,2471.03862 L262.500204,2475.49964 C262.500204,2476.32915 261.829701,2476.99965 261.000197,2476.99965 C260.170693,2476.99965 259.50019,2476.32915 259.50019,2475.49964 L259.50019,2471.03862 C239.187095,2471.81112 222.811518,2488.1882 222.037514,2508.4998 L226.500035,2508.4998 C227.329539,2508.4998 228.000042,2509.1718 228.000042,2509.9998 C228.000042,2510.82931 227.329539,2511.49981 226.500035,2511.49981 L222.037514,2511.49981 C222.811518,2531.81291 239.187095,2548.18998 259.50019,2548.96249 L259.50019,2544.49996 C259.50019,2543.67196 260.170693,2542.99996 261.000197,2542.99996 C261.829701,2542.99996 262.500204,2543.67196 262.500204,2544.49996 L262.500204,2548.96249 Z M277.969776,2490.90816 C278.556279,2490.32166 279.505784,2490.32166 280.092286,2490.90816 C280.677289,2491.49467 280.677289,2492.44267 280.092286,2493.02917 L266.149721,2506.97174 C266.677723,2507.86424 267.000225,2508.89025 267.000225,2510.00025 C267.000225,2513.30927 264.309212,2516.00028 261.000197,2516.00028 C257.691181,2516.00028 255.000169,2513.30927 255.000169,2510.00025 C255.000169,2506.69124 257.691181,2504.00023 261.000197,2504.00023 C262.110202,2504.00023 263.136207,2504.32273 264.028711,2504.85073 L277.969776,2490.90816 Z M261.000197,2513.00027 C262.654705,2513.00027 264.000211,2511.65476 264.000211,2510.00025 C264.000211,2508.34575 262.654705,2507.00024 261.000197,2507.00024 C259.345689,2507.00024 258.000183,2508.34575 258.000183,2510.00025 C258.000183,2511.65476 259.345689,2513.00027 261.000197,2513.00027 Z M256.328725,2459.00001 C255.499221,2459.00001 254.828718,2458.32801 254.828718,2457.50001 C254.828718,2456.672 255.499221,2456 256.328725,2456 L265.430768,2456 C266.260272,2456 266.930775,2456.672 266.930775,2457.50001 C266.930775,2458.32801 266.260272,2459.00001 265.430768,2459.00001 L262.499754,2459.00001 L262.499754,2463.50004 C262.499754,2464.32804 261.829251,2465.00004 260.999747,2465.00004 C260.171743,2465.00004 259.49974,2464.32804 259.49974,2463.50004 L259.49974,2459.00001 L256.328725,2459.00001 Z" id="[autoentry]ico_save-time_gradient"></path>
        </g>
    </g>
</svg>