<?xml version="1.0" encoding="UTF-8"?>
<svg width="40px" height="40px" viewBox="0 0 40 40" version="1.1" xmlns="http://www.w3.org/2000/svg" xmlns:xlink="http://www.w3.org/1999/xlink">
    <!-- Generator: Sketch 45.2 (43514) - http://www.bohemiancoding.com/sketch -->
    <title>[autoentry]ico_testimonial_getapp</title>
    <desc>Created with Sketch.</desc>
    <defs></defs>
    <g id="assets" stroke="none" stroke-width="1" fill="none" fill-rule="evenodd">
        <g id="Assets" transform="translate(-929.000000, -1083.000000)" fill="#689F38">
            <path d="M949,1123 C937.954305,1123 929,1114.04569 929,1103 C929,1091.95431 937.954305,1083 949,1083 C960.045695,1083 969,1091.95431 969,1103 C969,1114.04569 960.045695,1123 949,1123 Z M953.602726,1105.38824 L953.683703,1105.38824 C953.715049,1106.61072 953.252699,1107.79402 952.406365,1108.67693 C951.549582,1109.49975 950.397627,1109.94382 949.211714,1109.90725 C947.623531,1109.9621 946.105875,1109.24899 945.139382,1107.98994 C944.029221,1106.4984 943.467611,1104.67251 943.540751,1102.81528 C943.370961,1100.96588 943.875105,1099.11648 944.961757,1097.60928 C945.96482,1096.38418 947.487699,1095.70503 949.068046,1095.77294 C950.374117,1095.80951 951.651455,1096.18566 952.772065,1096.85698 C953.547871,1097.36896 954.407267,1097.73727 955.31368,1097.94363 C955.927534,1097.96453 956.517878,1097.7007 956.9097,1097.22529 C957.309358,1096.78907 957.536614,1096.21962 957.549675,1095.62927 C957.38511,1094.20827 956.468248,1092.9884 955.151727,1092.43462 C953.372858,1091.44201 951.358895,1090.95093 949.324036,1091.01362 C946.246931,1090.8595 943.250803,1092.01929 941.082724,1094.20566 C938.956439,1096.56703 937.851503,1099.67548 938.016068,1102.84663 C937.877624,1105.98381 938.945991,1109.05308 941.001747,1111.4249 C942.953018,1113.60866 945.771521,1114.82069 948.699734,1114.72927 C951.52346,1114.84942 954.268823,1113.77061 956.254052,1111.75926 C958.215771,1109.66171 959.252792,1106.86671 959.130022,1103.99858 C959.218834,1103.04776 958.92105,1102.10216 958.29936,1101.3786 C957.523553,1100.77258 956.546612,1100.48786 955.567058,1100.57929 L951.81602,1100.57929 C950.875649,1100.51398 949.940502,1100.71773 949.115064,1101.16963 C948.52472,1101.57451 948.190366,1102.26151 948.237384,1102.97462 C948.187753,1103.68251 948.514271,1104.36428 949.099391,1104.76394 C949.922217,1105.22106 950.857364,1105.43787 951.797735,1105.38824 L953.602726,1105.38824 Z" id="[autoentry]ico_testimonial_getapp"></path>
        </g>
    </g>
</svg>