<?xml version="1.0" encoding="UTF-8"?>
<svg width="40px" height="40px" viewBox="0 0 40 40" version="1.1" xmlns="http://www.w3.org/2000/svg" xmlns:xlink="http://www.w3.org/1999/xlink">
    <!-- Generator: Sketch 45.2 (43514) - http://www.bohemiancoding.com/sketch -->
    <title>Fill 3</title>
    <desc>Created with Sketch.</desc>
    <defs></defs>
    <g id="assets" stroke="none" stroke-width="1" fill="none" fill-rule="evenodd">
        <g id="Assets" transform="translate(-1451.000000, -1451.000000)" fill="#2CA01C">
            <g id="Page-1" transform="translate(1451.000000, 1451.000000)">
                <path d="M8.8817842e-16,19.8026122 C8.8817842e-16,8.86546939 8.86612245,0.000163265306 19.802449,0.000163265306 C30.7395918,0.000163265306 39.6053061,8.86546939 39.6053061,19.8026122 C39.6053061,30.7389388 30.7395918,39.6050612 19.802449,39.6050612 C8.86612245,39.6050612 8.8817842e-16,30.7389388 8.8817842e-16,19.8026122 M26.4054286,12.1022041 L25.3054286,12.1022041 L25.3054286,14.9626122 L26.4054286,14.9626122 C29.0744082,14.9626122 31.2462449,17.1340408 31.2462449,19.8030204 C31.2462449,22.4724082 29.0744082,24.6438367 26.4054286,24.6438367 L23.7617551,24.6438367 L23.7617551,9.68179592 C23.7617551,8.10220408 22.4809388,6.82138776 20.9013469,6.82138776 L20.9013469,27.5042449 L26.4054286,27.5042449 C30.6584898,27.5042449 34.1062449,24.0560816 34.1062449,19.8030204 C34.1062449,15.5499592 30.6584898,12.1022041 26.4054286,12.1022041 M5.49889796,19.8022041 C5.49889796,24.0552653 8.94665306,27.5030204 13.1997143,27.5030204 L14.2997143,27.5030204 L14.2997143,24.6426122 L13.1997143,24.6426122 C10.5307347,24.6426122 8.35889796,22.4711837 8.35889796,19.8022041 C8.35889796,17.1328163 10.5307347,14.9613878 13.1997143,14.9613878 L15.8433878,14.9613878 L15.8433878,29.9234286 C15.8433878,31.5030204 17.1242041,32.7838367 18.7037959,32.7838367 L18.7037959,12.1009796 L13.1997143,12.1009796 C8.94665306,12.1009796 5.49889796,15.5491429 5.49889796,19.8022041" id="Fill-3"></path>
            </g>
        </g>
    </g>
</svg>