<svg xmlns="http://www.w3.org/2000/svg" width="36" height="29.3" viewBox="0 0 36 29.3"><path fill="#FFF" d="M36 3.4c-1.3.6-2.7 1-4.2 1.2 1.5-.9 2.7-2.4 3.2-4.1-1.4.8-3 1.5-4.7 1.8C29 .9 27 0 24.9 0c-4.1 0-7.4 3.3-7.4 7.4 0 .6.1 1.1.2 1.7-6.1-.3-11.6-3.2-15.2-7.7-.6 1.1-1 2.4-1 3.7 0 2.6 1.3 4.8 3.3 6.1-1.2 0-2.3-.4-3.3-.9v.1C1.5 14 4 17 7.4 17.6c-.6.2-1.3.3-1.9.3-.5 0-.9 0-1.4-.1.9 2.9 3.7 5.1 6.9 5.1-2.5 2-5.7 3.2-9.2 3.2-.6 0-1.2 0-1.8-.1 3.3 2.1 7.2 3.3 11.3 3.3 13.6 0 21-11.3 21-21v-1C33.8 6.2 35 4.9 36 3.4"/></svg>