<?xml version="1.0" encoding="utf-8"?>
<!-- Generator: Adobe Illustrator 19.1.0, SVG Export Plug-In . SVG Version: 6.00 Build 0)  -->
<svg version="1.1" id="Слой_1" xmlns="http://www.w3.org/2000/svg" xmlns:xlink="http://www.w3.org/1999/xlink" x="0px" y="0px"
	 viewBox="0 0 558.8 140.4" style="enable-background:new 0 0 558.8 140.4;" xml:space="preserve">
<style type="text/css">
	.st0{fill:none;}
	.st1{fill:#F5C944;}
	.st2{fill:#56544A;}
</style>
<g>
	<path class="st0" d="M260.3,117.7c0-4.4-3.9-4.8-5.6-4.8H247v9.6h7.7C256.4,122.5,260.3,122.1,260.3,117.7z"/>
	<path class="st0" d="M17.9,117.4c0-4.1-3.9-4.5-5.5-4.5H4.8v9h7.6C14,121.9,17.9,121.5,17.9,117.4z"/>
	<path class="st0" d="M50.8,112.9H43v9.6h7.7c1.7,0,5.6-0.5,5.6-4.8C56.4,113.4,52.5,112.9,50.8,112.9z"/>
	<path class="st0" d="M12.7,126.2H4.8v9.6h7.9c3.5,0,5.6-1.9,5.6-4.8C18.3,128,16.2,126.2,12.7,126.2z"/>
	<path class="st1" d="M19,123.9c2.3-1.4,3.7-3.8,3.7-6.6c0-5.3-3.9-8.7-10-8.7H0v31.5h13c6.2,0,10.1-3.5,10.1-9
		C23.1,128,21.6,125.4,19,123.9z M18.3,131c0,3-2.2,4.8-5.6,4.8H4.8v-9.6h7.9C16.2,126.2,18.3,128,18.3,131z M4.8,121.9v-9h7.6
		c1.7,0,5.5,0.4,5.5,4.5c0,4.1-3.9,4.5-5.5,4.5H4.8z"/>
	<path class="st1" d="M61.2,117.7c0-5.4-4.1-9.1-10.1-9.1H38.3v31.5H43v-13.4h6.5l7.2,13.4h5.6l-7.6-13.9
		C58.7,125.1,61.2,121.9,61.2,117.7z M56.4,117.7c0,4.3-3.9,4.8-5.6,4.8H43v-9.6h7.7C52.5,112.9,56.4,113.4,56.4,117.7z"/>
	<rect x="76" y="108.6" class="st1" width="4.8" height="31.5"/>
	<path class="st1" d="M107.6,112.7c3.6,0,6.2,2.1,7,5.6l0.1,0.5h4.8l-0.1-0.8c-1-5.8-5.6-9.6-11.8-9.6c-3.3,0-6.3,1.2-8.6,3.3
		c-3.2,3-3.2,6.3-3.2,12.7c0,6.4,0,9.7,3.2,12.7c2.3,2.1,5.3,3.3,8.6,3.3c3.5,0,6.6-1.3,8.9-3.7c2-2.1,2.9-4.6,2.9-8.3V123h-12.6
		v4.3h7.8v1.6c0,2.2-0.5,3.7-1.6,5c-1.3,1.5-3.3,2.3-5.5,2.3c-1.9,0-3.7-0.7-5-1.9c-1.8-1.7-2-3.5-2-9.8c0-6.2,0.2-8,2-9.8
		C103.9,113.4,105.8,112.7,107.6,112.7z"/>
	<polygon class="st1" points="152.9,122.1 139.3,122.1 139.3,108.6 134.5,108.6 134.5,140.2 139.3,140.2 139.3,126.4 152.9,126.4 
		152.9,140.2 157.7,140.2 157.7,108.6 152.9,108.6 	"/>
	<polygon class="st1" points="170.8,112.9 179.9,112.9 179.9,140.2 184.7,140.2 184.7,112.9 193.9,112.9 193.9,108.6 170.8,108.6 	
		"/>
	<polygon class="st1" points="206.9,140.2 228,140.2 228,135.9 211.7,135.9 211.7,126.4 225.6,126.4 225.6,122.1 211.7,122.1 
		211.7,112.9 228,112.9 228,108.6 206.9,108.6 	"/>
	<path class="st1" d="M265.1,117.7c0-5.4-4.1-9.1-10.1-9.1h-12.8v31.5h4.8v-13.4h6.5l7.2,13.4h5.6l-7.6-13.9
		C262.6,125.1,265.1,121.9,265.1,117.7z M247,112.9h7.7c1.7,0,5.6,0.5,5.6,4.8c0,4.3-3.9,4.8-5.6,4.8H247V112.9z"/>
	<polygon class="st1" points="296.3,112.9 305.4,112.9 305.4,140.2 310.2,140.2 310.2,112.9 319.4,112.9 319.4,108.6 296.3,108.6 	
		"/>
	<polygon class="st1" points="350.8,122.1 337.2,122.1 337.2,108.6 332.4,108.6 332.4,140.2 337.2,140.2 337.2,126.4 350.8,126.4 
		350.8,140.2 355.6,140.2 355.6,108.6 350.8,108.6 	"/>
	<rect x="371.9" y="108.6" class="st1" width="4.8" height="31.5"/>
	<polygon class="st1" points="413,131.1 397.5,108.9 397.3,108.6 393,108.6 393,140.2 397.8,140.2 397.8,117.5 413.6,140.2 
		417.8,140.2 417.8,108.6 413,108.6 	"/>
	<polygon class="st1" points="458.6,108.6 452.7,108.6 438.9,124.7 438.9,108.6 434.1,108.6 434.1,140.2 438.9,140.2 438.9,131.3 
		444.8,124.6 454.1,140.2 459.8,140.2 448,121 	"/>
	<rect x="471.6" y="108.6" class="st1" width="4.8" height="31.5"/>
	<polygon class="st1" points="512.7,131.1 497.2,108.9 497,108.6 492.7,108.6 492.7,140.2 497.5,140.2 497.5,117.5 513.2,140.2 
		517.5,140.2 517.5,108.6 512.7,108.6 	"/>
	<path class="st1" d="M543.7,127.2h7.8v1.6c0,2.2-0.5,3.7-1.6,5c-1.3,1.5-3.3,2.3-5.5,2.3c-1.9,0-3.7-0.7-5-1.9
		c-1.8-1.7-2-3.5-2-9.8c0-6.2,0.2-8,2-9.8c1.3-1.2,3.1-2,5-2c3.6,0,6.2,2.1,7,5.6l0.1,0.5h4.8l-0.1-0.8c-1-5.8-5.6-9.6-11.8-9.6
		c-3.3,0-6.3,1.2-8.6,3.3c-3.2,3-3.2,6.3-3.2,12.7c0,6.4,0,9.7,3.2,12.7c2.2,2.1,5.3,3.3,8.6,3.3c3.5,0,6.6-1.3,8.9-3.7
		c2-2.1,2.9-4.6,2.9-8.3V123h-12.6V127.2z"/>
</g>
<polygon class="st2" points="438.6,5 482.1,5 482.1,14.5 449.3,14.5 449.3,37.3 476,37.3 476,46.9 449.3,46.9 449.3,70.1 482,70.1 
	482,79.7 438.6,79.7 "/>
<polygon class="st2" points="111.9,5 155.4,5 155.4,14.5 122.6,14.5 122.6,37.3 149.3,37.3 149.3,46.9 122.6,46.9 122.6,70.1 
	155.3,70.1 155.3,79.7 111.9,79.7 "/>
<polygon class="st2" points="193.3,79.6 203.2,79.6 203.2,27.2 253,84.4 253,5 243,5 243,57.6 193.3,0.2 "/>
<rect x="391.2" y="5" class="st2" width="10.7" height="74.5"/>
<g>
	<path class="st2" d="M538.9,48.4l-8.1-4.9c-5.1-3.1-8.7-6.2-10.9-9.2c-2.2-3-3.2-6.5-3.2-10.4c0-5.9,2-10.7,6.1-14.3
		c4.1-3.7,9.4-5.5,15.9-5.5c6.2,0,12,1.8,17.2,5.3v12.2c-5.4-5.2-11.2-7.8-17.4-7.8c-3.5,0-6.4,0.8-8.6,2.4
		c-2.2,1.6-3.4,3.7-3.4,6.2c0,2.2,0.8,4.3,2.5,6.3c1.7,2,4.3,4,8,6.2l8.2,4.8c9.1,5.4,13.7,12.4,13.7,20.8c0,6-2,10.9-6,14.6
		c-4,3.7-9.2,5.6-15.7,5.6c-7.4,0-14.1-2.3-20.2-6.8V60.2c5.8,7.3,12.5,11,20.1,11c3.4,0,6.1-0.9,8.4-2.8c2.2-1.9,3.3-4.2,3.3-7
		C548.8,56.8,545.5,52.5,538.9,48.4"/>
</g>
<polygon class="st2" points="70.2,0 60.2,10.3 35.6,37.2 10.8,10.3 0.7,0 0.7,79.6 11.4,79.6 11.4,24.9 34.6,50.2 35.5,51.2 
	36.5,50.2 59.5,24.9 59.5,79.6 70.2,79.6 "/>
<polygon class="st2" points="290.2,5 355.5,5 305.9,70.1 350.3,70.1 350.3,79.6 285.4,79.6 335.1,14.5 290.2,14.5 "/>
</svg>
